<svg width="66" height="66" viewBox="0 0 66 66" fill="none" xmlns="http://www.w3.org/2000/svg">
<circle opacity="0.1" cx="33" cy="33" r="33" fill="white"/>
<g opacity="0.6" clip-path="url(#clip0)">
<path d="M36.8744 23.2888H35.416V21.8304H36.8744V23.2888ZM29.5827 23.2888H28.1243V21.8304H29.5827V23.2888ZM37.6502 19.1442L39.5519 17.2425C39.8362 16.9567 39.8362 16.4958 39.5519 16.21C39.2675 15.9256 38.8052 15.9256 38.5208 16.21L36.3669 18.3654C35.1987 17.7879 33.8892 17.4554 32.4994 17.4554C31.1023 17.4554 29.7869 17.7923 28.6158 18.3728L26.4531 16.21C26.1673 15.9256 25.7064 15.9256 25.4206 16.21C25.1362 16.4958 25.1362 16.9567 25.4206 17.2425L27.3339 19.1543C25.1639 20.7469 23.7493 23.3077 23.7493 26.2054H41.2494C41.2494 23.3018 39.8289 20.7352 37.6502 19.1442ZM44.8952 27.6638C43.6877 27.6638 42.7077 28.6423 42.7077 29.8513V40.0595C42.7077 41.2685 43.6877 42.247 44.8952 42.247C46.1027 42.247 47.0827 41.2685 47.0827 40.0595V29.8513C47.0827 28.6423 46.1027 27.6638 44.8952 27.6638ZM20.1035 27.6638C18.896 27.6638 17.916 28.6423 17.916 29.8513V40.0595C17.916 41.2685 18.896 42.247 20.1035 42.247C21.311 42.247 22.291 41.2685 22.291 40.0595V29.8513C22.291 28.6423 21.311 27.6638 20.1035 27.6638ZM23.7493 42.247C23.7493 43.0507 24.4041 43.7053 25.2077 43.7053H26.666V48.8095C26.666 50.0185 27.646 50.997 28.8535 50.997C30.061 50.997 31.041 50.0185 31.041 48.8095V43.7053H33.9577V48.8095C33.9577 50.0185 34.9377 50.997 36.1452 50.997C37.3527 50.997 38.3327 50.0185 38.3327 48.8095V43.7053H39.791C40.5946 43.7053 41.2494 43.0507 41.2494 42.247V27.6638H23.7493V42.247Z" fill="white"/>
</g>
<defs>
<clipPath id="clip0">
<rect width="35" height="35" fill="white" transform="translate(15 16)"/>
</clipPath>
</defs>
</svg>
