<svg width="528" height="362" viewBox="0 0 528 362" fill="none" xmlns="http://www.w3.org/2000/svg">
<rect width="528" height="362" rx="5" fill="white"/>
<path d="M378.664 28.912V40H376.04V28.912H378.664ZM385.656 31.232C386.392 31.232 386.968 31.456 387.384 31.904C387.8 32.352 388.008 32.9813 388.008 33.792V40H385.48V34.224C385.48 33.7973 385.41 33.504 385.272 33.344C385.144 33.1733 384.946 33.088 384.68 33.088C384.168 33.088 383.677 33.456 383.208 34.192V40H380.68V31.504H382.888L383.064 32.512C383.426 32.0853 383.816 31.7653 384.232 31.552C384.658 31.3387 385.133 31.232 385.656 31.232ZM397.132 31.504L394.46 40H391.468L388.732 31.504H391.484L392.988 38.08L394.556 31.504H397.132ZM405.306 35.584C405.306 35.936 405.29 36.24 405.258 36.496H399.994C400.08 37.2107 400.282 37.712 400.602 38C400.922 38.288 401.365 38.432 401.93 38.432C402.272 38.432 402.602 38.3733 402.922 38.256C403.242 38.128 403.589 37.936 403.962 37.68L405.002 39.088C404.01 39.8773 402.906 40.272 401.69 40.272C400.314 40.272 399.258 39.8667 398.522 39.056C397.786 38.2453 397.418 37.1573 397.418 35.792C397.418 34.928 397.573 34.1547 397.882 33.472C398.192 32.7787 398.645 32.2347 399.242 31.84C399.84 31.4347 400.554 31.232 401.386 31.232C402.613 31.232 403.573 31.616 404.266 32.384C404.96 33.152 405.306 34.2187 405.306 35.584ZM402.826 34.864C402.805 33.5627 402.346 32.912 401.45 32.912C401.013 32.912 400.672 33.072 400.426 33.392C400.192 33.712 400.048 34.24 399.994 34.976H402.826V34.864ZM409.718 31.232C410.326 31.232 410.897 31.3227 411.43 31.504C411.964 31.6853 412.433 31.9413 412.838 32.272L411.91 33.696C411.217 33.2587 410.518 33.04 409.814 33.04C409.484 33.04 409.228 33.0987 409.046 33.216C408.876 33.3227 408.79 33.4773 408.79 33.68C408.79 33.84 408.828 33.9733 408.902 34.08C408.988 34.176 409.153 34.2773 409.398 34.384C409.644 34.4907 410.022 34.6187 410.534 34.768C411.42 35.024 412.076 35.36 412.502 35.776C412.94 36.1813 413.158 36.7467 413.158 37.472C413.158 38.048 412.993 38.5493 412.662 38.976C412.332 39.392 411.878 39.712 411.302 39.936C410.726 40.16 410.086 40.272 409.382 40.272C408.668 40.272 408.001 40.16 407.382 39.936C406.774 39.712 406.257 39.4027 405.83 39.008L407.062 37.632C407.777 38.1867 408.529 38.464 409.318 38.464C409.702 38.464 410.001 38.3947 410.214 38.256C410.438 38.1173 410.55 37.92 410.55 37.664C410.55 37.4613 410.508 37.3013 410.422 37.184C410.337 37.0667 410.172 36.96 409.926 36.864C409.681 36.7573 409.292 36.6293 408.758 36.48C407.916 36.2347 407.286 35.8933 406.87 35.456C406.454 35.0187 406.246 34.4747 406.246 33.824C406.246 33.3333 406.385 32.896 406.662 32.512C406.95 32.1173 407.356 31.808 407.878 31.584C408.412 31.3493 409.025 31.232 409.718 31.232ZM419.789 39.6C419.479 39.8133 419.117 39.9787 418.701 40.096C418.295 40.2133 417.89 40.272 417.485 40.272C415.629 40.2613 414.701 39.2373 414.701 37.2V33.264H413.501V31.504H414.701V29.664L417.229 29.376V31.504H419.181L418.909 33.264H417.229V37.168C417.229 37.5627 417.293 37.8453 417.421 38.016C417.549 38.1867 417.751 38.272 418.029 38.272C418.317 38.272 418.621 38.1813 418.941 38L419.789 39.6ZM430.025 31.232C430.697 31.232 431.235 31.4613 431.641 31.92C432.046 32.368 432.249 32.992 432.249 33.792V40H429.721V34.224C429.721 33.4667 429.481 33.088 429.001 33.088C428.734 33.088 428.499 33.1787 428.297 33.36C428.094 33.5413 427.897 33.8187 427.705 34.192V40H425.177V34.224C425.177 33.4667 424.937 33.088 424.457 33.088C424.201 33.088 423.966 33.184 423.753 33.376C423.55 33.5573 423.353 33.8293 423.161 34.192V40H420.633V31.504H422.841L423.017 32.496C423.347 32.0693 423.71 31.7547 424.105 31.552C424.51 31.3387 424.969 31.232 425.481 31.232C425.961 31.232 426.371 31.3493 426.713 31.584C427.065 31.8187 427.321 32.1493 427.481 32.576C427.822 32.1173 428.195 31.7813 428.601 31.568C429.017 31.344 429.491 31.232 430.025 31.232ZM441.556 35.584C441.556 35.936 441.54 36.24 441.508 36.496H436.244C436.33 37.2107 436.532 37.712 436.852 38C437.172 38.288 437.615 38.432 438.18 38.432C438.522 38.432 438.852 38.3733 439.172 38.256C439.492 38.128 439.839 37.936 440.212 37.68L441.252 39.088C440.26 39.8773 439.156 40.272 437.94 40.272C436.564 40.272 435.508 39.8667 434.772 39.056C434.036 38.2453 433.668 37.1573 433.668 35.792C433.668 34.928 433.823 34.1547 434.132 33.472C434.442 32.7787 434.895 32.2347 435.492 31.84C436.09 31.4347 436.804 31.232 437.636 31.232C438.863 31.232 439.823 31.616 440.516 32.384C441.21 33.152 441.556 34.2187 441.556 35.584ZM439.076 34.864C439.055 33.5627 438.596 32.912 437.7 32.912C437.263 32.912 436.922 33.072 436.676 33.392C436.442 33.712 436.298 34.24 436.244 34.976H439.076V34.864ZM447.952 31.232C448.688 31.232 449.264 31.456 449.68 31.904C450.096 32.352 450.304 32.9813 450.304 33.792V40H447.776V34.224C447.776 33.7973 447.707 33.504 447.568 33.344C447.44 33.1733 447.243 33.088 446.976 33.088C446.464 33.088 445.974 33.456 445.504 34.192V40H442.976V31.504H445.184L445.36 32.512C445.723 32.0853 446.112 31.7653 446.528 31.552C446.955 31.3387 447.43 31.232 447.952 31.232ZM457.539 39.6C457.229 39.8133 456.867 39.9787 456.451 40.096C456.045 40.2133 455.64 40.272 455.235 40.272C453.379 40.2613 452.451 39.2373 452.451 37.2V33.264H451.251V31.504H452.451V29.664L454.979 29.376V31.504H456.931L456.659 33.264H454.979V37.168C454.979 37.5627 455.043 37.8453 455.171 38.016C455.299 38.1867 455.501 38.272 455.779 38.272C456.067 38.272 456.371 38.1813 456.691 38L457.539 39.6ZM465.86 31.232C466.446 31.232 466.974 31.3173 467.444 31.488C467.913 31.6587 468.356 31.92 468.772 32.272L467.684 33.776C467.15 33.3707 466.612 33.168 466.068 33.168C465.502 33.168 465.076 33.376 464.788 33.792C464.5 34.208 464.356 34.88 464.356 35.808C464.356 36.704 464.5 37.3387 464.788 37.712C465.076 38.0853 465.492 38.272 466.036 38.272C466.324 38.272 466.585 38.2293 466.82 38.144C467.054 38.048 467.337 37.8987 467.668 37.696L468.772 39.264C467.929 39.936 466.974 40.272 465.908 40.272C465.044 40.272 464.297 40.0907 463.668 39.728C463.038 39.3547 462.553 38.8373 462.212 38.176C461.87 37.504 461.7 36.72 461.7 35.824C461.7 34.928 461.87 34.1333 462.212 33.44C462.553 32.7467 463.038 32.208 463.668 31.824C464.297 31.4293 465.028 31.232 465.86 31.232ZM474.812 31.232C475.548 31.232 476.124 31.456 476.54 31.904C476.956 32.352 477.164 32.9813 477.164 33.792V40H474.636V34.224C474.636 33.7973 474.566 33.504 474.428 33.344C474.289 33.1733 474.092 33.088 473.836 33.088C473.324 33.088 472.833 33.4507 472.364 34.176V40H469.836V28.128L472.364 27.872V32.416C472.716 32.0213 473.089 31.728 473.484 31.536C473.878 31.3333 474.321 31.232 474.812 31.232ZM485.822 37.536C485.822 37.856 485.865 38.0907 485.95 38.24C486.046 38.3893 486.195 38.5013 486.398 38.576L485.87 40.224C485.347 40.1813 484.921 40.0693 484.59 39.888C484.259 39.696 484.003 39.3973 483.822 38.992C483.267 39.8453 482.414 40.272 481.262 40.272C480.419 40.272 479.747 40.0267 479.246 39.536C478.745 39.0453 478.494 38.4053 478.494 37.616C478.494 36.688 478.835 35.9787 479.518 35.488C480.201 34.9973 481.187 34.752 482.478 34.752H483.342V34.384C483.342 33.8827 483.235 33.5413 483.022 33.36C482.809 33.168 482.435 33.072 481.902 33.072C481.625 33.072 481.289 33.1147 480.894 33.2C480.499 33.2747 480.094 33.3813 479.678 33.52L479.102 31.856C479.635 31.6533 480.179 31.4987 480.734 31.392C481.299 31.2853 481.822 31.232 482.302 31.232C483.518 31.232 484.409 31.4827 484.974 31.984C485.539 32.4853 485.822 33.2373 485.822 34.24V37.536ZM481.998 38.464C482.574 38.464 483.022 38.192 483.342 37.648V36.144H482.718C482.142 36.144 481.71 36.2453 481.422 36.448C481.145 36.6507 481.006 36.9653 481.006 37.392C481.006 37.7333 481.091 38 481.262 38.192C481.443 38.3733 481.689 38.464 481.998 38.464ZM492.444 31.264C492.753 31.264 493.036 31.3013 493.292 31.376L492.892 33.824C492.572 33.7493 492.316 33.712 492.124 33.712C491.622 33.712 491.238 33.888 490.972 34.24C490.716 34.5813 490.513 35.0987 490.364 35.792V40H487.836V31.504H490.044L490.252 33.152C490.444 32.5653 490.732 32.1067 491.116 31.776C491.51 31.4347 491.953 31.264 492.444 31.264ZM499.586 39.6C499.276 39.8133 498.914 39.9787 498.498 40.096C498.092 40.2133 497.687 40.272 497.282 40.272C495.426 40.2613 494.498 39.2373 494.498 37.2V33.264H493.298V31.504H494.498V29.664L497.026 29.376V31.504H498.978L498.706 33.264H497.026V37.168C497.026 37.5627 497.09 37.8453 497.218 38.016C497.346 38.1867 497.548 38.272 497.826 38.272C498.114 38.272 498.418 38.1813 498.738 38L499.586 39.6Z" fill="#002058"/>
<path opacity="0.45" d="M60.2391 321.693C61.1831 321.693 61.8991 322.053 62.3871 322.773C62.8831 323.493 63.1311 324.529 63.1311 325.881C63.1311 327.241 62.8831 328.285 62.3871 329.013C61.8991 329.733 61.1831 330.093 60.2391 330.093C59.2951 330.093 58.5751 329.733 58.0791 329.013C57.5911 328.285 57.3471 327.241 57.3471 325.881C57.3471 324.529 57.5911 323.493 58.0791 322.773C58.5751 322.053 59.2951 321.693 60.2391 321.693ZM60.2391 322.857C59.7831 322.857 59.4511 323.089 59.2431 323.553C59.0351 324.009 58.9311 324.785 58.9311 325.881C58.9311 326.985 59.0351 327.769 59.2431 328.233C59.4511 328.697 59.7831 328.929 60.2391 328.929C60.6951 328.929 61.0271 328.701 61.2351 328.245C61.4431 327.781 61.5471 326.993 61.5471 325.881C61.5471 324.777 61.4431 323.997 61.2351 323.541C61.0271 323.085 60.6951 322.857 60.2391 322.857ZM67.31 326.769V325.545H70.934V326.769H67.31ZM78.8093 321.837V329.913H77.2973V323.385L75.4973 324.477L74.8253 323.445L77.4533 321.837H78.8093ZM83.3837 321.693C84.3277 321.693 85.0437 322.053 85.5317 322.773C86.0277 323.493 86.2757 324.529 86.2757 325.881C86.2757 327.241 86.0277 328.285 85.5317 329.013C85.0437 329.733 84.3277 330.093 83.3837 330.093C82.4397 330.093 81.7197 329.733 81.2237 329.013C80.7357 328.285 80.4917 327.241 80.4917 325.881C80.4917 324.529 80.7357 323.493 81.2237 322.773C81.7197 322.053 82.4397 321.693 83.3837 321.693ZM83.3837 322.857C82.9277 322.857 82.5957 323.089 82.3877 323.553C82.1797 324.009 82.0757 324.785 82.0757 325.881C82.0757 326.985 82.1797 327.769 82.3877 328.233C82.5957 328.697 82.9277 328.929 83.3837 328.929C83.8397 328.929 84.1717 328.701 84.3797 328.245C84.5877 327.781 84.6917 326.993 84.6917 325.881C84.6917 324.777 84.5877 323.997 84.3797 323.541C84.1717 323.085 83.8397 322.857 83.3837 322.857ZM94.1866 321.321L95.1826 321.957L89.6146 330.345L88.6306 329.709L94.1866 321.321ZM89.3146 321.693C89.6986 321.693 90.0466 321.781 90.3586 321.957C90.6706 322.125 90.9146 322.369 91.0906 322.689C91.2746 323.009 91.3666 323.377 91.3666 323.793C91.3666 324.209 91.2746 324.577 91.0906 324.897C90.9146 325.217 90.6706 325.465 90.3586 325.641C90.0466 325.809 89.6986 325.893 89.3146 325.893C88.9306 325.893 88.5826 325.809 88.2706 325.641C87.9666 325.465 87.7226 325.217 87.5386 324.897C87.3626 324.577 87.2746 324.209 87.2746 323.793C87.2746 323.377 87.3626 323.009 87.5386 322.689C87.7226 322.369 87.9666 322.125 88.2706 321.957C88.5826 321.781 88.9306 321.693 89.3146 321.693ZM89.3146 322.653C89.0026 322.653 88.7786 322.761 88.6426 322.977C88.5146 323.185 88.4506 323.457 88.4506 323.793C88.4506 324.121 88.5146 324.393 88.6426 324.609C88.7786 324.825 89.0026 324.933 89.3146 324.933C89.8906 324.933 90.1786 324.553 90.1786 323.793C90.1786 323.033 89.8906 322.653 89.3146 322.653ZM94.4746 325.893C94.8586 325.893 95.2066 325.981 95.5186 326.157C95.8306 326.325 96.0746 326.569 96.2506 326.889C96.4266 327.209 96.5146 327.577 96.5146 327.993C96.5146 328.409 96.4266 328.777 96.2506 329.097C96.0746 329.417 95.8306 329.665 95.5186 329.841C95.2066 330.009 94.8586 330.093 94.4746 330.093C94.0906 330.093 93.7426 330.009 93.4306 329.841C93.1186 329.665 92.8706 329.417 92.6866 329.097C92.5106 328.777 92.4226 328.409 92.4226 327.993C92.4226 327.577 92.5106 327.209 92.6866 326.889C92.8706 326.569 93.1186 326.325 93.4306 326.157C93.7426 325.981 94.0906 325.893 94.4746 325.893ZM94.4746 326.853C94.1626 326.853 93.9386 326.961 93.8026 327.177C93.6746 327.385 93.6106 327.657 93.6106 327.993C93.6106 328.321 93.6746 328.593 93.8026 328.809C93.9386 329.025 94.1626 329.133 94.4746 329.133C95.0506 329.133 95.3386 328.753 95.3386 327.993C95.3386 327.233 95.0506 326.853 94.4746 326.853Z" fill="#002058"/>
<path opacity="0.45" d="M114.886 321.837V329.913H113.374V323.385L111.574 324.477L110.902 323.445L113.53 321.837H114.886ZM120.101 321.837V329.913H118.589V323.385L116.789 324.477L116.117 323.445L118.745 321.837H120.101ZM124.868 326.769V325.545H128.492V326.769H124.868ZM134.903 321.693C135.447 321.693 135.915 321.793 136.307 321.993C136.707 322.193 137.011 322.465 137.219 322.809C137.427 323.153 137.531 323.537 137.531 323.961C137.531 324.417 137.431 324.857 137.231 325.281C137.039 325.697 136.715 326.161 136.259 326.673C135.803 327.185 135.135 327.861 134.255 328.701H137.711L137.543 329.913H132.515V328.785C133.539 327.745 134.271 326.977 134.711 326.481C135.159 325.977 135.475 325.549 135.659 325.197C135.851 324.837 135.947 324.465 135.947 324.081C135.947 323.713 135.839 323.425 135.623 323.217C135.415 323.009 135.135 322.905 134.783 322.905C134.471 322.905 134.195 322.973 133.955 323.109C133.723 323.237 133.479 323.453 133.223 323.757L132.287 323.013C132.967 322.133 133.839 321.693 134.903 321.693ZM141.621 321.693C142.565 321.693 143.281 322.053 143.769 322.773C144.265 323.493 144.513 324.529 144.513 325.881C144.513 327.241 144.265 328.285 143.769 329.013C143.281 329.733 142.565 330.093 141.621 330.093C140.677 330.093 139.957 329.733 139.461 329.013C138.973 328.285 138.729 327.241 138.729 325.881C138.729 324.529 138.973 323.493 139.461 322.773C139.957 322.053 140.677 321.693 141.621 321.693ZM141.621 322.857C141.165 322.857 140.833 323.089 140.625 323.553C140.417 324.009 140.313 324.785 140.313 325.881C140.313 326.985 140.417 327.769 140.625 328.233C140.833 328.697 141.165 328.929 141.621 328.929C142.077 328.929 142.409 328.701 142.617 328.245C142.825 327.781 142.929 326.993 142.929 325.881C142.929 324.777 142.825 323.997 142.617 323.541C142.409 323.085 142.077 322.857 141.621 322.857ZM152.424 321.321L153.42 321.957L147.852 330.345L146.868 329.709L152.424 321.321ZM147.552 321.693C147.936 321.693 148.284 321.781 148.596 321.957C148.908 322.125 149.152 322.369 149.328 322.689C149.512 323.009 149.604 323.377 149.604 323.793C149.604 324.209 149.512 324.577 149.328 324.897C149.152 325.217 148.908 325.465 148.596 325.641C148.284 325.809 147.936 325.893 147.552 325.893C147.168 325.893 146.82 325.809 146.508 325.641C146.204 325.465 145.96 325.217 145.776 324.897C145.6 324.577 145.512 324.209 145.512 323.793C145.512 323.377 145.6 323.009 145.776 322.689C145.96 322.369 146.204 322.125 146.508 321.957C146.82 321.781 147.168 321.693 147.552 321.693ZM147.552 322.653C147.24 322.653 147.016 322.761 146.88 322.977C146.752 323.185 146.688 323.457 146.688 323.793C146.688 324.121 146.752 324.393 146.88 324.609C147.016 324.825 147.24 324.933 147.552 324.933C148.128 324.933 148.416 324.553 148.416 323.793C148.416 323.033 148.128 322.653 147.552 322.653ZM152.712 325.893C153.096 325.893 153.444 325.981 153.756 326.157C154.068 326.325 154.312 326.569 154.488 326.889C154.664 327.209 154.752 327.577 154.752 327.993C154.752 328.409 154.664 328.777 154.488 329.097C154.312 329.417 154.068 329.665 153.756 329.841C153.444 330.009 153.096 330.093 152.712 330.093C152.328 330.093 151.98 330.009 151.668 329.841C151.356 329.665 151.108 329.417 150.924 329.097C150.748 328.777 150.66 328.409 150.66 327.993C150.66 327.577 150.748 327.209 150.924 326.889C151.108 326.569 151.356 326.325 151.668 326.157C151.98 325.981 152.328 325.893 152.712 325.893ZM152.712 326.853C152.4 326.853 152.176 326.961 152.04 327.177C151.912 327.385 151.848 327.657 151.848 327.993C151.848 328.321 151.912 328.593 152.04 328.809C152.176 329.025 152.4 329.133 152.712 329.133C153.288 329.133 153.576 328.753 153.576 327.993C153.576 327.233 153.288 326.853 152.712 326.853Z" fill="#002058"/>
<path opacity="0.45" d="M173.037 321.693C173.581 321.693 174.049 321.793 174.441 321.993C174.841 322.193 175.145 322.465 175.353 322.809C175.561 323.153 175.665 323.537 175.665 323.961C175.665 324.417 175.565 324.857 175.365 325.281C175.173 325.697 174.849 326.161 174.393 326.673C173.937 327.185 173.269 327.861 172.389 328.701H175.845L175.677 329.913H170.649V328.785C171.673 327.745 172.405 326.977 172.845 326.481C173.293 325.977 173.609 325.549 173.793 325.197C173.985 324.837 174.081 324.465 174.081 324.081C174.081 323.713 173.973 323.425 173.757 323.217C173.549 323.009 173.269 322.905 172.917 322.905C172.605 322.905 172.329 322.973 172.089 323.109C171.857 323.237 171.613 323.453 171.357 323.757L170.421 323.013C171.101 322.133 171.973 321.693 173.037 321.693ZM180.302 321.837V329.913H178.79V323.385L176.99 324.477L176.318 323.445L178.946 321.837H180.302ZM185.068 326.769V325.545H188.692V326.769H185.068ZM195.092 321.693C195.628 321.693 196.088 321.785 196.472 321.969C196.864 322.153 197.156 322.401 197.348 322.713C197.548 323.025 197.648 323.369 197.648 323.745C197.648 324.233 197.508 324.641 197.228 324.969C196.948 325.289 196.564 325.513 196.076 325.641C196.612 325.689 197.052 325.881 197.396 326.217C197.74 326.553 197.912 327.017 197.912 327.609C197.912 328.073 197.792 328.493 197.552 328.869C197.32 329.245 196.984 329.545 196.544 329.769C196.104 329.985 195.584 330.093 194.984 330.093C193.88 330.093 193.008 329.705 192.368 328.929L193.22 328.113C193.492 328.385 193.76 328.585 194.024 328.713C194.288 328.833 194.58 328.893 194.9 328.893C195.332 328.893 195.676 328.773 195.932 328.533C196.196 328.285 196.328 327.953 196.328 327.537C196.328 327.073 196.204 326.741 195.956 326.541C195.716 326.341 195.356 326.241 194.876 326.241H194.24L194.42 325.149H194.852C195.244 325.149 195.556 325.041 195.788 324.825C196.028 324.609 196.148 324.309 196.148 323.925C196.148 323.597 196.04 323.341 195.824 323.157C195.608 322.965 195.32 322.869 194.96 322.869C194.648 322.869 194.364 322.929 194.108 323.049C193.852 323.161 193.596 323.337 193.34 323.577L192.56 322.725C193.288 322.037 194.132 321.693 195.092 321.693ZM201.857 321.693C202.801 321.693 203.517 322.053 204.005 322.773C204.501 323.493 204.749 324.529 204.749 325.881C204.749 327.241 204.501 328.285 204.005 329.013C203.517 329.733 202.801 330.093 201.857 330.093C200.913 330.093 200.193 329.733 199.697 329.013C199.209 328.285 198.965 327.241 198.965 325.881C198.965 324.529 199.209 323.493 199.697 322.773C200.193 322.053 200.913 321.693 201.857 321.693ZM201.857 322.857C201.401 322.857 201.069 323.089 200.861 323.553C200.653 324.009 200.549 324.785 200.549 325.881C200.549 326.985 200.653 327.769 200.861 328.233C201.069 328.697 201.401 328.929 201.857 328.929C202.313 328.929 202.645 328.701 202.853 328.245C203.061 327.781 203.165 326.993 203.165 325.881C203.165 324.777 203.061 323.997 202.853 323.541C202.645 323.085 202.313 322.857 201.857 322.857ZM212.66 321.321L213.656 321.957L208.088 330.345L207.104 329.709L212.66 321.321ZM207.788 321.693C208.172 321.693 208.52 321.781 208.832 321.957C209.144 322.125 209.388 322.369 209.564 322.689C209.748 323.009 209.84 323.377 209.84 323.793C209.84 324.209 209.748 324.577 209.564 324.897C209.388 325.217 209.144 325.465 208.832 325.641C208.52 325.809 208.172 325.893 207.788 325.893C207.404 325.893 207.056 325.809 206.744 325.641C206.44 325.465 206.196 325.217 206.012 324.897C205.836 324.577 205.748 324.209 205.748 323.793C205.748 323.377 205.836 323.009 206.012 322.689C206.196 322.369 206.44 322.125 206.744 321.957C207.056 321.781 207.404 321.693 207.788 321.693ZM207.788 322.653C207.476 322.653 207.252 322.761 207.116 322.977C206.988 323.185 206.924 323.457 206.924 323.793C206.924 324.121 206.988 324.393 207.116 324.609C207.252 324.825 207.476 324.933 207.788 324.933C208.364 324.933 208.652 324.553 208.652 323.793C208.652 323.033 208.364 322.653 207.788 322.653ZM212.948 325.893C213.332 325.893 213.68 325.981 213.992 326.157C214.304 326.325 214.548 326.569 214.724 326.889C214.9 327.209 214.988 327.577 214.988 327.993C214.988 328.409 214.9 328.777 214.724 329.097C214.548 329.417 214.304 329.665 213.992 329.841C213.68 330.009 213.332 330.093 212.948 330.093C212.564 330.093 212.216 330.009 211.904 329.841C211.592 329.665 211.344 329.417 211.16 329.097C210.984 328.777 210.896 328.409 210.896 327.993C210.896 327.577 210.984 327.209 211.16 326.889C211.344 326.569 211.592 326.325 211.904 326.157C212.216 325.981 212.564 325.893 212.948 325.893ZM212.948 326.853C212.636 326.853 212.412 326.961 212.276 327.177C212.148 327.385 212.084 327.657 212.084 327.993C212.084 328.321 212.148 328.593 212.276 328.809C212.412 329.025 212.636 329.133 212.948 329.133C213.524 329.133 213.812 328.753 213.812 327.993C213.812 327.233 213.524 326.853 212.948 326.853Z" fill="#002058"/>
<path d="M232.784 321.78C233.32 321.78 233.78 321.872 234.164 322.056C234.556 322.24 234.848 322.488 235.04 322.8C235.24 323.112 235.34 323.456 235.34 323.832C235.34 324.32 235.2 324.728 234.92 325.056C234.64 325.376 234.256 325.6 233.768 325.728C234.304 325.776 234.744 325.968 235.088 326.304C235.432 326.64 235.604 327.104 235.604 327.696C235.604 328.16 235.484 328.58 235.244 328.956C235.012 329.332 234.676 329.632 234.236 329.856C233.796 330.072 233.276 330.18 232.676 330.18C231.572 330.18 230.7 329.792 230.06 329.016L230.912 328.2C231.184 328.472 231.452 328.672 231.716 328.8C231.98 328.92 232.272 328.98 232.592 328.98C233.024 328.98 233.368 328.86 233.624 328.62C233.888 328.372 234.02 328.04 234.02 327.624C234.02 327.16 233.896 326.828 233.648 326.628C233.408 326.428 233.048 326.328 232.568 326.328H231.932L232.112 325.236H232.544C232.936 325.236 233.248 325.128 233.48 324.912C233.72 324.696 233.84 324.396 233.84 324.012C233.84 323.684 233.732 323.428 233.516 323.244C233.3 323.052 233.012 322.956 232.652 322.956C232.34 322.956 232.056 323.016 231.8 323.136C231.544 323.248 231.288 323.424 231.032 323.664L230.252 322.812C230.98 322.124 231.824 321.78 232.784 321.78ZM240.096 321.924V330H238.584V323.472L236.784 324.564L236.112 323.532L238.74 321.924H240.096ZM244.862 326.856V325.632H248.486V326.856H244.862ZM258.402 326.976V328.152H257.43V330H255.93V328.152H252.498V327.096L254.85 321.768L256.158 322.26L254.094 326.976H255.942L256.098 324.948H257.43V326.976H258.402ZM262.131 321.78C263.075 321.78 263.791 322.14 264.279 322.86C264.775 323.58 265.023 324.616 265.023 325.968C265.023 327.328 264.775 328.372 264.279 329.1C263.791 329.82 263.075 330.18 262.131 330.18C261.187 330.18 260.467 329.82 259.971 329.1C259.483 328.372 259.239 327.328 259.239 325.968C259.239 324.616 259.483 323.58 259.971 322.86C260.467 322.14 261.187 321.78 262.131 321.78ZM262.131 322.944C261.675 322.944 261.343 323.176 261.135 323.64C260.927 324.096 260.823 324.872 260.823 325.968C260.823 327.072 260.927 327.856 261.135 328.32C261.343 328.784 261.675 329.016 262.131 329.016C262.587 329.016 262.919 328.788 263.127 328.332C263.335 327.868 263.439 327.08 263.439 325.968C263.439 324.864 263.335 324.084 263.127 323.628C262.919 323.172 262.587 322.944 262.131 322.944ZM272.934 321.408L273.93 322.044L268.362 330.432L267.378 329.796L272.934 321.408ZM268.062 321.78C268.446 321.78 268.794 321.868 269.106 322.044C269.418 322.212 269.662 322.456 269.838 322.776C270.022 323.096 270.114 323.464 270.114 323.88C270.114 324.296 270.022 324.664 269.838 324.984C269.662 325.304 269.418 325.552 269.106 325.728C268.794 325.896 268.446 325.98 268.062 325.98C267.678 325.98 267.33 325.896 267.018 325.728C266.714 325.552 266.47 325.304 266.286 324.984C266.11 324.664 266.022 324.296 266.022 323.88C266.022 323.464 266.11 323.096 266.286 322.776C266.47 322.456 266.714 322.212 267.018 322.044C267.33 321.868 267.678 321.78 268.062 321.78ZM268.062 322.74C267.75 322.74 267.526 322.848 267.39 323.064C267.262 323.272 267.198 323.544 267.198 323.88C267.198 324.208 267.262 324.48 267.39 324.696C267.526 324.912 267.75 325.02 268.062 325.02C268.638 325.02 268.926 324.64 268.926 323.88C268.926 323.12 268.638 322.74 268.062 322.74ZM273.222 325.98C273.606 325.98 273.954 326.068 274.266 326.244C274.578 326.412 274.822 326.656 274.998 326.976C275.174 327.296 275.262 327.664 275.262 328.08C275.262 328.496 275.174 328.864 274.998 329.184C274.822 329.504 274.578 329.752 274.266 329.928C273.954 330.096 273.606 330.18 273.222 330.18C272.838 330.18 272.49 330.096 272.178 329.928C271.866 329.752 271.618 329.504 271.434 329.184C271.258 328.864 271.17 328.496 271.17 328.08C271.17 327.664 271.258 327.296 271.434 326.976C271.618 326.656 271.866 326.412 272.178 326.244C272.49 326.068 272.838 325.98 273.222 325.98ZM273.222 326.94C272.91 326.94 272.686 327.048 272.55 327.264C272.422 327.472 272.358 327.744 272.358 328.08C272.358 328.408 272.422 328.68 272.55 328.896C272.686 329.112 272.91 329.22 273.222 329.22C273.798 329.22 274.086 328.84 274.086 328.08C274.086 327.32 273.798 326.94 273.222 326.94Z" fill="#002058"/>
<path opacity="0.45" d="M295.77 326.889V328.065H294.798V329.913H293.298V328.065H289.866V327.009L292.218 321.681L293.526 322.173L291.462 326.889H293.31L293.466 324.861H294.798V326.889H295.77ZM299.543 321.837V329.913H298.031V323.385L296.231 324.477L295.559 323.445L298.187 321.837H299.543ZM304.309 326.769V325.545H307.933V326.769H304.309ZM313.699 322.977H310.675V324.981C311.075 324.781 311.483 324.681 311.899 324.681C312.347 324.681 312.747 324.785 313.099 324.993C313.451 325.201 313.723 325.501 313.915 325.893C314.115 326.285 314.215 326.749 314.215 327.285C314.215 327.837 314.091 328.325 313.843 328.749C313.595 329.173 313.243 329.505 312.787 329.745C312.331 329.977 311.803 330.093 311.203 330.093C310.667 330.093 310.191 329.997 309.775 329.805C309.367 329.605 308.995 329.321 308.659 328.953L309.535 328.137C309.999 328.649 310.543 328.905 311.167 328.905C311.623 328.905 311.979 328.765 312.235 328.485C312.499 328.205 312.631 327.805 312.631 327.285C312.631 326.285 312.199 325.785 311.335 325.785C311.151 325.785 310.979 325.809 310.819 325.857C310.659 325.897 310.483 325.965 310.291 326.061H309.199V321.837H313.879L313.699 322.977ZM318.098 321.693C319.042 321.693 319.758 322.053 320.246 322.773C320.742 323.493 320.99 324.529 320.99 325.881C320.99 327.241 320.742 328.285 320.246 329.013C319.758 329.733 319.042 330.093 318.098 330.093C317.154 330.093 316.434 329.733 315.938 329.013C315.45 328.285 315.206 327.241 315.206 325.881C315.206 324.529 315.45 323.493 315.938 322.773C316.434 322.053 317.154 321.693 318.098 321.693ZM318.098 322.857C317.642 322.857 317.31 323.089 317.102 323.553C316.894 324.009 316.79 324.785 316.79 325.881C316.79 326.985 316.894 327.769 317.102 328.233C317.31 328.697 317.642 328.929 318.098 328.929C318.554 328.929 318.886 328.701 319.094 328.245C319.302 327.781 319.406 326.993 319.406 325.881C319.406 324.777 319.302 323.997 319.094 323.541C318.886 323.085 318.554 322.857 318.098 322.857ZM328.9 321.321L329.896 321.957L324.328 330.345L323.344 329.709L328.9 321.321ZM324.028 321.693C324.412 321.693 324.76 321.781 325.072 321.957C325.384 322.125 325.628 322.369 325.804 322.689C325.988 323.009 326.08 323.377 326.08 323.793C326.08 324.209 325.988 324.577 325.804 324.897C325.628 325.217 325.384 325.465 325.072 325.641C324.76 325.809 324.412 325.893 324.028 325.893C323.644 325.893 323.296 325.809 322.984 325.641C322.68 325.465 322.436 325.217 322.252 324.897C322.076 324.577 321.988 324.209 321.988 323.793C321.988 323.377 322.076 323.009 322.252 322.689C322.436 322.369 322.68 322.125 322.984 321.957C323.296 321.781 323.644 321.693 324.028 321.693ZM324.028 322.653C323.716 322.653 323.492 322.761 323.356 322.977C323.228 323.185 323.164 323.457 323.164 323.793C323.164 324.121 323.228 324.393 323.356 324.609C323.492 324.825 323.716 324.933 324.028 324.933C324.604 324.933 324.892 324.553 324.892 323.793C324.892 323.033 324.604 322.653 324.028 322.653ZM329.188 325.893C329.572 325.893 329.92 325.981 330.232 326.157C330.544 326.325 330.788 326.569 330.964 326.889C331.14 327.209 331.228 327.577 331.228 327.993C331.228 328.409 331.14 328.777 330.964 329.097C330.788 329.417 330.544 329.665 330.232 329.841C329.92 330.009 329.572 330.093 329.188 330.093C328.804 330.093 328.456 330.009 328.144 329.841C327.832 329.665 327.584 329.417 327.4 329.097C327.224 328.777 327.136 328.409 327.136 327.993C327.136 327.577 327.224 327.209 327.4 326.889C327.584 326.569 327.832 326.325 328.144 326.157C328.456 325.981 328.804 325.893 329.188 325.893ZM329.188 326.853C328.876 326.853 328.652 326.961 328.516 327.177C328.388 327.385 328.324 327.657 328.324 327.993C328.324 328.321 328.388 328.593 328.516 328.809C328.652 329.025 328.876 329.133 329.188 329.133C329.764 329.133 330.052 328.753 330.052 327.993C330.052 327.233 329.764 326.853 329.188 326.853Z" fill="#002058"/>
<path opacity="0.45" d="M351.869 322.977H348.845V324.981C349.245 324.781 349.653 324.681 350.069 324.681C350.517 324.681 350.917 324.785 351.269 324.993C351.621 325.201 351.893 325.501 352.085 325.893C352.285 326.285 352.385 326.749 352.385 327.285C352.385 327.837 352.261 328.325 352.013 328.749C351.765 329.173 351.413 329.505 350.957 329.745C350.501 329.977 349.973 330.093 349.373 330.093C348.837 330.093 348.361 329.997 347.945 329.805C347.537 329.605 347.165 329.321 346.829 328.953L347.705 328.137C348.169 328.649 348.713 328.905 349.337 328.905C349.793 328.905 350.149 328.765 350.405 328.485C350.669 328.205 350.801 327.805 350.801 327.285C350.801 326.285 350.369 325.785 349.505 325.785C349.321 325.785 349.149 325.809 348.989 325.857C348.829 325.897 348.653 325.965 348.461 326.061H347.369V321.837H352.049L351.869 322.977ZM356.451 321.837V329.913H354.939V323.385L353.139 324.477L352.467 323.445L355.095 321.837H356.451ZM361.217 326.769V325.545H364.841V326.769H361.217ZM372.393 324.537C372.817 324.537 373.201 324.641 373.545 324.849C373.897 325.049 374.173 325.349 374.373 325.749C374.573 326.141 374.673 326.613 374.673 327.165C374.673 327.725 374.557 328.229 374.325 328.677C374.093 329.117 373.765 329.465 373.341 329.721C372.925 329.969 372.449 330.093 371.913 330.093C370.921 330.093 370.185 329.745 369.705 329.049C369.233 328.353 368.997 327.397 368.997 326.181C368.997 325.285 369.129 324.501 369.393 323.829C369.665 323.149 370.049 322.625 370.545 322.257C371.049 321.881 371.637 321.693 372.309 321.693C372.973 321.693 373.561 321.865 374.073 322.209L373.497 323.157C373.129 322.941 372.741 322.833 372.333 322.833C371.821 322.833 371.409 323.065 371.097 323.529C370.793 323.985 370.621 324.617 370.581 325.425C371.069 324.833 371.673 324.537 372.393 324.537ZM371.913 328.953C372.313 328.953 372.613 328.797 372.813 328.485C373.021 328.165 373.125 327.733 373.125 327.189C373.125 326.637 373.029 326.245 372.837 326.013C372.653 325.773 372.381 325.653 372.021 325.653C371.749 325.653 371.489 325.729 371.241 325.881C371.001 326.025 370.785 326.225 370.593 326.481C370.609 327.353 370.717 327.985 370.917 328.377C371.125 328.761 371.457 328.953 371.913 328.953ZM378.486 321.693C379.43 321.693 380.146 322.053 380.634 322.773C381.13 323.493 381.378 324.529 381.378 325.881C381.378 327.241 381.13 328.285 380.634 329.013C380.146 329.733 379.43 330.093 378.486 330.093C377.542 330.093 376.822 329.733 376.326 329.013C375.838 328.285 375.594 327.241 375.594 325.881C375.594 324.529 375.838 323.493 376.326 322.773C376.822 322.053 377.542 321.693 378.486 321.693ZM378.486 322.857C378.03 322.857 377.698 323.089 377.49 323.553C377.282 324.009 377.178 324.785 377.178 325.881C377.178 326.985 377.282 327.769 377.49 328.233C377.698 328.697 378.03 328.929 378.486 328.929C378.942 328.929 379.274 328.701 379.482 328.245C379.69 327.781 379.794 326.993 379.794 325.881C379.794 324.777 379.69 323.997 379.482 323.541C379.274 323.085 378.942 322.857 378.486 322.857ZM389.289 321.321L390.285 321.957L384.717 330.345L383.733 329.709L389.289 321.321ZM384.417 321.693C384.801 321.693 385.149 321.781 385.461 321.957C385.773 322.125 386.017 322.369 386.193 322.689C386.377 323.009 386.469 323.377 386.469 323.793C386.469 324.209 386.377 324.577 386.193 324.897C386.017 325.217 385.773 325.465 385.461 325.641C385.149 325.809 384.801 325.893 384.417 325.893C384.033 325.893 383.685 325.809 383.373 325.641C383.069 325.465 382.825 325.217 382.641 324.897C382.465 324.577 382.377 324.209 382.377 323.793C382.377 323.377 382.465 323.009 382.641 322.689C382.825 322.369 383.069 322.125 383.373 321.957C383.685 321.781 384.033 321.693 384.417 321.693ZM384.417 322.653C384.105 322.653 383.881 322.761 383.745 322.977C383.617 323.185 383.553 323.457 383.553 323.793C383.553 324.121 383.617 324.393 383.745 324.609C383.881 324.825 384.105 324.933 384.417 324.933C384.993 324.933 385.281 324.553 385.281 323.793C385.281 323.033 384.993 322.653 384.417 322.653ZM389.577 325.893C389.961 325.893 390.309 325.981 390.621 326.157C390.933 326.325 391.177 326.569 391.353 326.889C391.529 327.209 391.617 327.577 391.617 327.993C391.617 328.409 391.529 328.777 391.353 329.097C391.177 329.417 390.933 329.665 390.621 329.841C390.309 330.009 389.961 330.093 389.577 330.093C389.193 330.093 388.845 330.009 388.533 329.841C388.221 329.665 387.973 329.417 387.789 329.097C387.613 328.777 387.525 328.409 387.525 327.993C387.525 327.577 387.613 327.209 387.789 326.889C387.973 326.569 388.221 326.325 388.533 326.157C388.845 325.981 389.193 325.893 389.577 325.893ZM389.577 326.853C389.265 326.853 389.041 326.961 388.905 327.177C388.777 327.385 388.713 327.657 388.713 327.993C388.713 328.321 388.777 328.593 388.905 328.809C389.041 329.025 389.265 329.133 389.577 329.133C390.153 329.133 390.441 328.753 390.441 327.993C390.441 327.233 390.153 326.853 389.577 326.853Z" fill="#002058"/>
<path opacity="0.45" d="M410.152 324.537C410.576 324.537 410.96 324.641 411.304 324.849C411.656 325.049 411.932 325.349 412.132 325.749C412.332 326.141 412.432 326.613 412.432 327.165C412.432 327.725 412.316 328.229 412.084 328.677C411.852 329.117 411.524 329.465 411.1 329.721C410.684 329.969 410.208 330.093 409.672 330.093C408.68 330.093 407.944 329.745 407.464 329.049C406.992 328.353 406.756 327.397 406.756 326.181C406.756 325.285 406.888 324.501 407.152 323.829C407.424 323.149 407.808 322.625 408.304 322.257C408.808 321.881 409.396 321.693 410.068 321.693C410.732 321.693 411.32 321.865 411.832 322.209L411.256 323.157C410.888 322.941 410.5 322.833 410.092 322.833C409.58 322.833 409.168 323.065 408.856 323.529C408.552 323.985 408.38 324.617 408.34 325.425C408.828 324.833 409.432 324.537 410.152 324.537ZM409.672 328.953C410.072 328.953 410.372 328.797 410.572 328.485C410.78 328.165 410.884 327.733 410.884 327.189C410.884 326.637 410.788 326.245 410.596 326.013C410.412 325.773 410.14 325.653 409.78 325.653C409.508 325.653 409.248 325.729 409 325.881C408.76 326.025 408.544 326.225 408.352 326.481C408.368 327.353 408.476 327.985 408.676 328.377C408.884 328.761 409.216 328.953 409.672 328.953ZM416.441 321.837V329.913H414.929V323.385L413.129 324.477L412.457 323.445L415.085 321.837H416.441ZM421.207 326.769V325.545H424.831V326.769H421.207ZM433.654 321.837V322.917L430.666 330.069L429.262 329.613L432.07 323.025H428.662V321.837H433.654ZM437.234 321.693C438.178 321.693 438.894 322.053 439.382 322.773C439.878 323.493 440.126 324.529 440.126 325.881C440.126 327.241 439.878 328.285 439.382 329.013C438.894 329.733 438.178 330.093 437.234 330.093C436.29 330.093 435.57 329.733 435.074 329.013C434.586 328.285 434.342 327.241 434.342 325.881C434.342 324.529 434.586 323.493 435.074 322.773C435.57 322.053 436.29 321.693 437.234 321.693ZM437.234 322.857C436.778 322.857 436.446 323.089 436.238 323.553C436.03 324.009 435.926 324.785 435.926 325.881C435.926 326.985 436.03 327.769 436.238 328.233C436.446 328.697 436.778 328.929 437.234 328.929C437.69 328.929 438.022 328.701 438.23 328.245C438.438 327.781 438.542 326.993 438.542 325.881C438.542 324.777 438.438 323.997 438.23 323.541C438.022 323.085 437.69 322.857 437.234 322.857ZM448.037 321.321L449.033 321.957L443.465 330.345L442.481 329.709L448.037 321.321ZM443.165 321.693C443.549 321.693 443.897 321.781 444.209 321.957C444.521 322.125 444.765 322.369 444.941 322.689C445.125 323.009 445.217 323.377 445.217 323.793C445.217 324.209 445.125 324.577 444.941 324.897C444.765 325.217 444.521 325.465 444.209 325.641C443.897 325.809 443.549 325.893 443.165 325.893C442.781 325.893 442.433 325.809 442.121 325.641C441.817 325.465 441.573 325.217 441.389 324.897C441.213 324.577 441.125 324.209 441.125 323.793C441.125 323.377 441.213 323.009 441.389 322.689C441.573 322.369 441.817 322.125 442.121 321.957C442.433 321.781 442.781 321.693 443.165 321.693ZM443.165 322.653C442.853 322.653 442.629 322.761 442.493 322.977C442.365 323.185 442.301 323.457 442.301 323.793C442.301 324.121 442.365 324.393 442.493 324.609C442.629 324.825 442.853 324.933 443.165 324.933C443.741 324.933 444.029 324.553 444.029 323.793C444.029 323.033 443.741 322.653 443.165 322.653ZM448.325 325.893C448.709 325.893 449.057 325.981 449.369 326.157C449.681 326.325 449.925 326.569 450.101 326.889C450.277 327.209 450.365 327.577 450.365 327.993C450.365 328.409 450.277 328.777 450.101 329.097C449.925 329.417 449.681 329.665 449.369 329.841C449.057 330.009 448.709 330.093 448.325 330.093C447.941 330.093 447.593 330.009 447.281 329.841C446.969 329.665 446.721 329.417 446.537 329.097C446.361 328.777 446.273 328.409 446.273 327.993C446.273 327.577 446.361 327.209 446.537 326.889C446.721 326.569 446.969 326.325 447.281 326.157C447.593 325.981 447.941 325.893 448.325 325.893ZM448.325 326.853C448.013 326.853 447.789 326.961 447.653 327.177C447.525 327.385 447.461 327.657 447.461 327.993C447.461 328.321 447.525 328.593 447.653 328.809C447.789 329.025 448.013 329.133 448.325 329.133C448.901 329.133 449.189 328.753 449.189 327.993C449.189 327.233 448.901 326.853 448.325 326.853Z" fill="#002058"/>
<path opacity="0.45" d="M471.039 321.837V322.917L468.051 330.069L466.647 329.613L469.455 323.025H466.047V321.837H471.039ZM475.399 321.837V329.913H473.887V323.385L472.087 324.477L471.415 323.445L474.043 321.837H475.399ZM480.166 326.769V325.545H483.79V326.769H480.166ZM492.121 325.581C493.225 326.077 493.777 326.797 493.777 327.741C493.777 328.181 493.653 328.581 493.405 328.941C493.157 329.293 492.805 329.573 492.349 329.781C491.901 329.989 491.377 330.093 490.777 330.093C490.185 330.093 489.669 329.993 489.229 329.793C488.789 329.585 488.449 329.305 488.209 328.953C487.969 328.601 487.849 328.205 487.849 327.765C487.849 326.837 488.361 326.157 489.385 325.725C488.577 325.285 488.173 324.649 488.173 323.817C488.173 323.393 488.289 323.021 488.521 322.701C488.761 322.373 489.081 322.125 489.481 321.957C489.889 321.781 490.333 321.693 490.813 321.693C491.301 321.693 491.745 321.773 492.145 321.933C492.545 322.093 492.861 322.329 493.093 322.641C493.333 322.953 493.453 323.325 493.453 323.757C493.453 324.517 493.009 325.125 492.121 325.581ZM490.813 322.773C490.453 322.773 490.169 322.865 489.961 323.049C489.761 323.233 489.661 323.497 489.661 323.841C489.661 324.161 489.757 324.417 489.949 324.609C490.141 324.793 490.449 324.961 490.873 325.113L491.101 325.197C491.413 325.005 491.633 324.805 491.761 324.597C491.897 324.381 491.965 324.125 491.965 323.829C491.965 323.501 491.865 323.245 491.665 323.061C491.465 322.869 491.181 322.773 490.813 322.773ZM490.813 328.953C491.253 328.953 491.597 328.841 491.845 328.617C492.093 328.393 492.217 328.101 492.217 327.741C492.217 327.373 492.109 327.085 491.893 326.877C491.677 326.661 491.293 326.453 490.741 326.253L490.369 326.121C489.721 326.465 489.397 326.997 489.397 327.717C489.397 328.101 489.525 328.405 489.781 328.629C490.037 328.845 490.381 328.953 490.813 328.953ZM497.645 321.693C498.589 321.693 499.305 322.053 499.793 322.773C500.289 323.493 500.537 324.529 500.537 325.881C500.537 327.241 500.289 328.285 499.793 329.013C499.305 329.733 498.589 330.093 497.645 330.093C496.701 330.093 495.981 329.733 495.485 329.013C494.997 328.285 494.753 327.241 494.753 325.881C494.753 324.529 494.997 323.493 495.485 322.773C495.981 322.053 496.701 321.693 497.645 321.693ZM497.645 322.857C497.189 322.857 496.857 323.089 496.649 323.553C496.441 324.009 496.337 324.785 496.337 325.881C496.337 326.985 496.441 327.769 496.649 328.233C496.857 328.697 497.189 328.929 497.645 328.929C498.101 328.929 498.433 328.701 498.641 328.245C498.849 327.781 498.953 326.993 498.953 325.881C498.953 324.777 498.849 323.997 498.641 323.541C498.433 323.085 498.101 322.857 497.645 322.857ZM508.448 321.321L509.444 321.957L503.876 330.345L502.892 329.709L508.448 321.321ZM503.576 321.693C503.96 321.693 504.308 321.781 504.62 321.957C504.932 322.125 505.176 322.369 505.352 322.689C505.536 323.009 505.628 323.377 505.628 323.793C505.628 324.209 505.536 324.577 505.352 324.897C505.176 325.217 504.932 325.465 504.62 325.641C504.308 325.809 503.96 325.893 503.576 325.893C503.192 325.893 502.844 325.809 502.532 325.641C502.228 325.465 501.984 325.217 501.8 324.897C501.624 324.577 501.536 324.209 501.536 323.793C501.536 323.377 501.624 323.009 501.8 322.689C501.984 322.369 502.228 322.125 502.532 321.957C502.844 321.781 503.192 321.693 503.576 321.693ZM503.576 322.653C503.264 322.653 503.04 322.761 502.904 322.977C502.776 323.185 502.712 323.457 502.712 323.793C502.712 324.121 502.776 324.393 502.904 324.609C503.04 324.825 503.264 324.933 503.576 324.933C504.152 324.933 504.44 324.553 504.44 323.793C504.44 323.033 504.152 322.653 503.576 322.653ZM508.736 325.893C509.12 325.893 509.468 325.981 509.78 326.157C510.092 326.325 510.336 326.569 510.512 326.889C510.688 327.209 510.776 327.577 510.776 327.993C510.776 328.409 510.688 328.777 510.512 329.097C510.336 329.417 510.092 329.665 509.78 329.841C509.468 330.009 509.12 330.093 508.736 330.093C508.352 330.093 508.004 330.009 507.692 329.841C507.38 329.665 507.132 329.417 506.948 329.097C506.772 328.777 506.684 328.409 506.684 327.993C506.684 327.577 506.772 327.209 506.948 326.889C507.132 326.569 507.38 326.325 507.692 326.157C508.004 325.981 508.352 325.893 508.736 325.893ZM508.736 326.853C508.424 326.853 508.2 326.961 508.064 327.177C507.936 327.385 507.872 327.657 507.872 327.993C507.872 328.321 507.936 328.593 508.064 328.809C508.2 329.025 508.424 329.133 508.736 329.133C509.312 329.133 509.6 328.753 509.6 327.993C509.6 327.233 509.312 326.853 508.736 326.853Z" fill="#002058"/>
<path opacity="0.45" d="M44.2185 309.136C45.1945 309.136 45.9345 309.5 46.4385 310.228C46.9425 310.948 47.1945 311.988 47.1945 313.348C47.1945 314.708 46.9385 315.752 46.4265 316.48C45.9225 317.208 45.1865 317.572 44.2185 317.572C43.2505 317.572 42.5145 317.208 42.0105 316.48C41.5065 315.752 41.2545 314.708 41.2545 313.348C41.2545 311.988 41.5065 310.948 42.0105 310.228C42.5145 309.5 43.2505 309.136 44.2185 309.136ZM44.2185 310.408C43.9305 310.408 43.6985 310.504 43.5225 310.696C43.3465 310.88 43.2145 311.188 43.1265 311.62C43.0465 312.044 43.0065 312.62 43.0065 313.348C43.0065 314.076 43.0465 314.656 43.1265 315.088C43.2145 315.512 43.3465 315.82 43.5225 316.012C43.6985 316.196 43.9305 316.288 44.2185 316.288C44.5065 316.288 44.7385 316.196 44.9145 316.012C45.0905 315.828 45.2225 315.524 45.3105 315.1C45.3985 314.668 45.4425 314.084 45.4425 313.348C45.4425 312.604 45.3985 312.02 45.3105 311.596C45.2225 311.164 45.0905 310.86 44.9145 310.684C44.7385 310.5 44.5065 310.408 44.2185 310.408Z" fill="#002058"/>
<path opacity="0.45" d="M36.4592 266.256V274.344H34.7912V267.936L33.0152 269.028L32.2712 267.876L34.9592 266.256H36.4592ZM45.2439 267.792C45.7479 267.792 46.1519 267.964 46.4559 268.308C46.7679 268.652 46.9239 269.12 46.9239 269.712V274.344H45.2199V270C45.2199 269.376 45.0119 269.064 44.5959 269.064C44.3719 269.064 44.1759 269.136 44.0079 269.28C43.8399 269.424 43.6679 269.648 43.4919 269.952V274.344H41.7879V270C41.7879 269.376 41.5799 269.064 41.1639 269.064C40.9399 269.064 40.7439 269.14 40.5759 269.292C40.4079 269.436 40.2399 269.656 40.0719 269.952V274.344H38.3679V267.984H39.8439L39.9759 268.776C40.2159 268.456 40.4839 268.212 40.7799 268.044C41.0839 267.876 41.4319 267.792 41.8239 267.792C42.1839 267.792 42.4959 267.884 42.7599 268.068C43.0239 268.244 43.2159 268.496 43.3359 268.824C43.5999 268.48 43.8839 268.224 44.1879 268.056C44.4999 267.88 44.8519 267.792 45.2439 267.792Z" fill="#002058"/>
<path opacity="0.45" d="M36.5518 224.456H33.5638V226.316C33.9558 226.132 34.3638 226.04 34.7878 226.04C35.2358 226.04 35.6318 226.144 35.9758 226.352C36.3278 226.56 36.6038 226.864 36.8038 227.264C37.0038 227.656 37.1038 228.12 37.1038 228.656C37.1038 229.216 36.9758 229.712 36.7198 230.144C36.4638 230.568 36.0998 230.9 35.6278 231.14C35.1638 231.38 34.6238 231.5 34.0078 231.5C32.9678 231.5 32.0958 231.108 31.3918 230.324L32.3518 229.424C32.7998 229.936 33.3358 230.192 33.9598 230.192C34.3998 230.192 34.7398 230.06 34.9798 229.796C35.2278 229.532 35.3518 229.152 35.3518 228.656C35.3518 227.704 34.9438 227.228 34.1278 227.228C33.9518 227.228 33.7838 227.252 33.6238 227.3C33.4718 227.34 33.3038 227.412 33.1198 227.516H31.9318V223.22H36.7558L36.5518 224.456ZM45.2439 224.756C45.7479 224.756 46.1519 224.928 46.4559 225.272C46.7679 225.616 46.9239 226.084 46.9239 226.676V231.308H45.2199V226.964C45.2199 226.34 45.0119 226.028 44.5959 226.028C44.3719 226.028 44.1759 226.1 44.0079 226.244C43.8399 226.388 43.6679 226.612 43.4919 226.916V231.308H41.7879V226.964C41.7879 226.34 41.5799 226.028 41.1639 226.028C40.9399 226.028 40.7439 226.104 40.5759 226.256C40.4079 226.4 40.2399 226.62 40.0719 226.916V231.308H38.3679V224.948H39.8439L39.9759 225.74C40.2159 225.42 40.4839 225.176 40.7799 225.008C41.0839 224.84 41.4319 224.756 41.8239 224.756C42.1839 224.756 42.4959 224.848 42.7599 225.032C43.0239 225.208 43.2159 225.46 43.3359 225.788C43.5999 225.444 43.8839 225.188 44.1879 225.02C44.4999 224.844 44.8519 224.756 45.2439 224.756Z" fill="#002058"/>
<path opacity="0.45" d="M29.5098 180.183V188.271H27.8418V181.863L26.0658 182.955L25.3218 181.803L28.0098 180.183H29.5098ZM34.0464 180.027C35.0224 180.027 35.7624 180.391 36.2664 181.119C36.7704 181.839 37.0224 182.879 37.0224 184.239C37.0224 185.599 36.7664 186.643 36.2544 187.371C35.7504 188.099 35.0144 188.463 34.0464 188.463C33.0784 188.463 32.3424 188.099 31.8384 187.371C31.3344 186.643 31.0824 185.599 31.0824 184.239C31.0824 182.879 31.3344 181.839 31.8384 181.119C32.3424 180.391 33.0784 180.027 34.0464 180.027ZM34.0464 181.299C33.7584 181.299 33.5264 181.395 33.3504 181.587C33.1744 181.771 33.0424 182.079 32.9544 182.511C32.8744 182.935 32.8344 183.511 32.8344 184.239C32.8344 184.967 32.8744 185.547 32.9544 185.979C33.0424 186.403 33.1744 186.711 33.3504 186.903C33.5264 187.087 33.7584 187.179 34.0464 187.179C34.3344 187.179 34.5664 187.087 34.7424 186.903C34.9184 186.719 35.0504 186.415 35.1384 185.991C35.2264 185.559 35.2704 184.975 35.2704 184.239C35.2704 183.495 35.2264 182.911 35.1384 182.487C35.0504 182.055 34.9184 181.751 34.7424 181.575C34.5664 181.391 34.3344 181.299 34.0464 181.299ZM45.2437 181.719C45.7477 181.719 46.1517 181.891 46.4557 182.235C46.7677 182.579 46.9237 183.047 46.9237 183.639V188.271H45.2197V183.927C45.2197 183.303 45.0117 182.991 44.5957 182.991C44.3717 182.991 44.1757 183.063 44.0077 183.207C43.8397 183.351 43.6677 183.575 43.4917 183.879V188.271H41.7877V183.927C41.7877 183.303 41.5797 182.991 41.1637 182.991C40.9397 182.991 40.7437 183.067 40.5757 183.219C40.4077 183.363 40.2397 183.583 40.0717 183.879V188.271H38.3677V181.911H39.8437L39.9757 182.703C40.2157 182.383 40.4837 182.139 40.7797 181.971C41.0837 181.803 41.4317 181.719 41.8237 181.719C42.1837 181.719 42.4957 181.811 42.7597 181.995C43.0237 182.171 43.2157 182.423 43.3357 182.751C43.5997 182.407 43.8837 182.151 44.1877 181.983C44.4997 181.807 44.8517 181.719 45.2437 181.719Z" fill="#002058"/>
<path d="M30.1468 137.123V145.235H28.2868V138.971L26.5468 140.039L25.7188 138.779L28.4548 137.123H30.1468ZM36.5772 138.479H33.6372V140.183C34.0132 140.007 34.4132 139.919 34.8372 139.919C35.2852 139.919 35.6852 140.023 36.0372 140.231C36.3892 140.439 36.6652 140.743 36.8652 141.143C37.0652 141.543 37.1652 142.015 37.1652 142.559C37.1652 143.127 37.0332 143.631 36.7692 144.071C36.5132 144.503 36.1412 144.839 35.6532 145.079C35.1732 145.319 34.6172 145.439 33.9852 145.439C32.8892 145.439 31.9892 145.031 31.2852 144.215L32.3412 143.231C32.7812 143.751 33.3052 144.011 33.9132 144.011C34.3292 144.011 34.6492 143.887 34.8732 143.639C35.1052 143.391 35.2212 143.035 35.2212 142.571C35.2212 141.667 34.8412 141.215 34.0812 141.215C33.9212 141.215 33.7652 141.239 33.6132 141.287C33.4612 141.327 33.2932 141.399 33.1092 141.503H31.8252V137.123H36.7932L36.5772 138.479ZM45.3508 138.659C45.8548 138.659 46.2588 138.831 46.5628 139.175C46.8668 139.511 47.0188 139.979 47.0188 140.579V145.235H45.1228V140.903C45.1228 140.335 44.9428 140.051 44.5828 140.051C44.3828 140.051 44.2068 140.119 44.0548 140.255C43.9028 140.391 43.7548 140.599 43.6108 140.879V145.235H41.7148V140.903C41.7148 140.335 41.5348 140.051 41.1748 140.051C40.9828 140.051 40.8068 140.123 40.6468 140.267C40.4948 140.403 40.3468 140.607 40.2028 140.879V145.235H38.3068V138.863H39.9628L40.0948 139.607C40.3428 139.287 40.6148 139.051 40.9108 138.899C41.2148 138.739 41.5588 138.659 41.9428 138.659C42.3028 138.659 42.6108 138.747 42.8668 138.923C43.1308 139.099 43.3228 139.347 43.4428 139.667C43.6988 139.323 43.9788 139.071 44.2828 138.911C44.5948 138.743 44.9508 138.659 45.3508 138.659Z" fill="#1A0C2F"/>
<path opacity="0.45" d="M27.2698 93.9552C27.8298 93.9552 28.3138 94.0592 28.7218 94.2672C29.1298 94.4672 29.4378 94.7432 29.6458 95.0952C29.8618 95.4392 29.9698 95.8232 29.9698 96.2472C29.9698 96.6872 29.8738 97.1112 29.6818 97.5192C29.4978 97.9272 29.1778 98.3872 28.7218 98.8992C28.2738 99.4112 27.6178 100.071 26.7538 100.879H30.1498L29.9578 102.199H24.8098V100.963C25.8178 99.9552 26.5458 99.2032 26.9938 98.7072C27.4418 98.2112 27.7578 97.7912 27.9418 97.4472C28.1258 97.1032 28.2178 96.7512 28.2178 96.3912C28.2178 96.0472 28.1178 95.7752 27.9178 95.5752C27.7178 95.3752 27.4498 95.2752 27.1138 95.2752C26.8178 95.2752 26.5538 95.3432 26.3218 95.4792C26.0898 95.6072 25.8458 95.8232 25.5898 96.1272L24.5698 95.3112C25.2578 94.4072 26.1578 93.9552 27.2698 93.9552ZM34.0464 93.9552C35.0224 93.9552 35.7624 94.3192 36.2664 95.0472C36.7704 95.7672 37.0224 96.8072 37.0224 98.1672C37.0224 99.5272 36.7664 100.571 36.2544 101.299C35.7504 102.027 35.0144 102.391 34.0464 102.391C33.0784 102.391 32.3424 102.027 31.8384 101.299C31.3344 100.571 31.0824 99.5272 31.0824 98.1672C31.0824 96.8072 31.3344 95.7672 31.8384 95.0472C32.3424 94.3192 33.0784 93.9552 34.0464 93.9552ZM34.0464 95.2272C33.7584 95.2272 33.5264 95.3232 33.3504 95.5152C33.1744 95.6992 33.0424 96.0072 32.9544 96.4392C32.8744 96.8632 32.8344 97.4392 32.8344 98.1672C32.8344 98.8952 32.8744 99.4752 32.9544 99.9072C33.0424 100.331 33.1744 100.639 33.3504 100.831C33.5264 101.015 33.7584 101.107 34.0464 101.107C34.3344 101.107 34.5664 101.015 34.7424 100.831C34.9184 100.647 35.0504 100.343 35.1384 99.9192C35.2264 99.4872 35.2704 98.9032 35.2704 98.1672C35.2704 97.4232 35.2264 96.8392 35.1384 96.4152C35.0504 95.9832 34.9184 95.6792 34.7424 95.5032C34.5664 95.3192 34.3344 95.2272 34.0464 95.2272ZM45.2437 95.6472C45.7477 95.6472 46.1517 95.8192 46.4557 96.1632C46.7677 96.5072 46.9237 96.9752 46.9237 97.5672V102.199H45.2197V97.8552C45.2197 97.2312 45.0117 96.9192 44.5957 96.9192C44.3717 96.9192 44.1757 96.9912 44.0077 97.1352C43.8397 97.2792 43.6677 97.5032 43.4917 97.8072V102.199H41.7877V97.8552C41.7877 97.2312 41.5797 96.9192 41.1637 96.9192C40.9397 96.9192 40.7437 96.9952 40.5757 97.1472C40.4077 97.2912 40.2397 97.5112 40.0717 97.8072V102.199H38.3677V95.8392H39.8437L39.9757 96.6312C40.2157 96.3112 40.4837 96.0672 40.7797 95.8992C41.0837 95.7312 41.4317 95.6472 41.8237 95.6472C42.1837 95.6472 42.4957 95.7392 42.7597 95.9232C43.0237 96.0992 43.2157 96.3512 43.3357 96.6792C43.5997 96.3352 43.8837 96.0792 44.1877 95.9112C44.4997 95.7352 44.8517 95.6472 45.2437 95.6472Z" fill="#002058"/>
<path opacity="0.45" d="M27.8909 50.9188C28.4509 50.9188 28.9349 51.0228 29.3429 51.2308C29.7509 51.4308 30.0589 51.7068 30.2669 52.0588C30.4829 52.4028 30.5909 52.7868 30.5909 53.2108C30.5909 53.6508 30.4949 54.0748 30.3029 54.4828C30.1189 54.8908 29.7989 55.3508 29.3429 55.8628C28.8949 56.3748 28.2389 57.0348 27.3749 57.8428H30.7709L30.5789 59.1628H25.4309V57.9268C26.4389 56.9188 27.1669 56.1668 27.6149 55.6708C28.0629 55.1748 28.3789 54.7548 28.5629 54.4108C28.7469 54.0668 28.8389 53.7148 28.8389 53.3548C28.8389 53.0108 28.7389 52.7388 28.5389 52.5388C28.3389 52.3388 28.0709 52.2388 27.7349 52.2388C27.4389 52.2388 27.1749 52.3068 26.9429 52.4428C26.7109 52.5708 26.4669 52.7868 26.2109 53.0908L25.1909 52.2748C25.8789 51.3708 26.7789 50.9188 27.8909 50.9188ZM36.5515 52.3108H33.5635V54.1708C33.9555 53.9868 34.3635 53.8948 34.7875 53.8948C35.2355 53.8948 35.6315 53.9988 35.9755 54.2068C36.3275 54.4148 36.6035 54.7188 36.8035 55.1188C37.0035 55.5108 37.1035 55.9748 37.1035 56.5108C37.1035 57.0708 36.9755 57.5668 36.7195 57.9988C36.4635 58.4228 36.0995 58.7548 35.6275 58.9948C35.1635 59.2348 34.6235 59.3548 34.0075 59.3548C32.9675 59.3548 32.0955 58.9628 31.3915 58.1788L32.3515 57.2788C32.7995 57.7908 33.3355 58.0468 33.9595 58.0468C34.3995 58.0468 34.7395 57.9148 34.9795 57.6508C35.2275 57.3868 35.3515 57.0068 35.3515 56.5108C35.3515 55.5588 34.9435 55.0828 34.1275 55.0828C33.9515 55.0828 33.7835 55.1068 33.6235 55.1548C33.4715 55.1948 33.3035 55.2668 33.1195 55.3708H31.9315V51.0748H36.7555L36.5515 52.3108ZM45.2437 52.6108C45.7477 52.6108 46.1517 52.7828 46.4557 53.1268C46.7677 53.4708 46.9237 53.9388 46.9237 54.5308V59.1628H45.2197V54.8188C45.2197 54.1948 45.0117 53.8828 44.5957 53.8828C44.3717 53.8828 44.1757 53.9548 44.0077 54.0988C43.8397 54.2428 43.6677 54.4668 43.4917 54.7708V59.1628H41.7877V54.8188C41.7877 54.1948 41.5797 53.8828 41.1637 53.8828C40.9397 53.8828 40.7437 53.9588 40.5757 54.1108C40.4077 54.2548 40.2397 54.4748 40.0717 54.7708V59.1628H38.3677V52.8028H39.8437L39.9757 53.5948C40.2157 53.2748 40.4837 53.0308 40.7797 52.8628C41.0837 52.6948 41.4317 52.6108 41.8237 52.6108C42.1837 52.6108 42.4957 52.7028 42.7597 52.8868C43.0237 53.0628 43.2157 53.3148 43.3357 53.6428C43.5997 53.2988 43.8837 53.0428 44.1877 52.8748C44.4997 52.6988 44.8517 52.6108 45.2437 52.6108Z" fill="#002058"/>
<rect opacity="0.2" x="69.2271" y="171.532" width="19.0436" height="137.445" rx="5" fill="#F9A825"/>
<rect opacity="0.2" x="127.186" y="59.7546" width="19.0436" height="249.222" rx="5" fill="#F9A825"/>
<rect opacity="0.2" x="185.145" y="111.089" width="19.0436" height="197.888" rx="5" fill="#F9A825"/>
<rect x="243.103" y="132.617" width="19.0436" height="176.36" rx="5" fill="#F9A825"/>
<rect opacity="0.2" x="301.062" y="73.0022" width="19.0436" height="235.975" rx="5" fill="#F9A825"/>
<rect opacity="0.2" x="359.021" y="227.007" width="19.0436" height="81.9702" rx="5" fill="#F9A825"/>
<rect opacity="0.2" x="416.979" y="255.986" width="19.0436" height="52.9908" rx="5" fill="#F9A825"/>
<rect opacity="0.2" x="474.938" y="206.307" width="19.0436" height="102.67" rx="5" fill="#F9A825"/>
</svg>
