<svg width="499" height="304" viewBox="0 0 499 304" fill="none" xmlns="http://www.w3.org/2000/svg">
<path d="M366.664 1.912V13H364.04V1.912H366.664ZM373.656 4.232C374.392 4.232 374.968 4.456 375.384 4.904C375.8 5.352 376.008 5.98133 376.008 6.792V13H373.48V7.224C373.48 6.79733 373.41 6.504 373.272 6.344C373.144 6.17333 372.946 6.088 372.68 6.088C372.168 6.088 371.677 6.456 371.208 7.192V13H368.68V4.504H370.888L371.064 5.512C371.426 5.08533 371.816 4.76533 372.232 4.552C372.658 4.33867 373.133 4.232 373.656 4.232ZM385.132 4.504L382.46 13H379.468L376.732 4.504H379.484L380.988 11.08L382.556 4.504H385.132ZM393.306 8.584C393.306 8.936 393.29 9.24 393.258 9.496H387.994C388.08 10.2107 388.282 10.712 388.602 11C388.922 11.288 389.365 11.432 389.93 11.432C390.272 11.432 390.602 11.3733 390.922 11.256C391.242 11.128 391.589 10.936 391.962 10.68L393.002 12.088C392.01 12.8773 390.906 13.272 389.69 13.272C388.314 13.272 387.258 12.8667 386.522 12.056C385.786 11.2453 385.418 10.1573 385.418 8.792C385.418 7.928 385.573 7.15467 385.882 6.472C386.192 5.77867 386.645 5.23467 387.242 4.84C387.84 4.43467 388.554 4.232 389.386 4.232C390.613 4.232 391.573 4.616 392.266 5.384C392.96 6.152 393.306 7.21867 393.306 8.584ZM390.826 7.864C390.805 6.56267 390.346 5.912 389.45 5.912C389.013 5.912 388.672 6.072 388.426 6.392C388.192 6.712 388.048 7.24 387.994 7.976H390.826V7.864ZM397.718 4.232C398.326 4.232 398.897 4.32267 399.43 4.504C399.964 4.68533 400.433 4.94133 400.838 5.272L399.91 6.696C399.217 6.25867 398.518 6.04 397.814 6.04C397.484 6.04 397.228 6.09867 397.046 6.216C396.876 6.32267 396.79 6.47733 396.79 6.68C396.79 6.84 396.828 6.97333 396.902 7.08C396.988 7.176 397.153 7.27733 397.398 7.384C397.644 7.49067 398.022 7.61867 398.534 7.768C399.42 8.024 400.076 8.36 400.502 8.776C400.94 9.18133 401.158 9.74667 401.158 10.472C401.158 11.048 400.993 11.5493 400.662 11.976C400.332 12.392 399.878 12.712 399.302 12.936C398.726 13.16 398.086 13.272 397.382 13.272C396.668 13.272 396.001 13.16 395.382 12.936C394.774 12.712 394.257 12.4027 393.83 12.008L395.062 10.632C395.777 11.1867 396.529 11.464 397.318 11.464C397.702 11.464 398.001 11.3947 398.214 11.256C398.438 11.1173 398.55 10.92 398.55 10.664C398.55 10.4613 398.508 10.3013 398.422 10.184C398.337 10.0667 398.172 9.96 397.926 9.864C397.681 9.75733 397.292 9.62933 396.758 9.48C395.916 9.23467 395.286 8.89333 394.87 8.456C394.454 8.01867 394.246 7.47467 394.246 6.824C394.246 6.33333 394.385 5.896 394.662 5.512C394.95 5.11733 395.356 4.808 395.878 4.584C396.412 4.34933 397.025 4.232 397.718 4.232ZM407.789 12.6C407.479 12.8133 407.117 12.9787 406.701 13.096C406.295 13.2133 405.89 13.272 405.485 13.272C403.629 13.2613 402.701 12.2373 402.701 10.2V6.264H401.501V4.504H402.701V2.664L405.229 2.376V4.504H407.181L406.909 6.264H405.229V10.168C405.229 10.5627 405.293 10.8453 405.421 11.016C405.549 11.1867 405.751 11.272 406.029 11.272C406.317 11.272 406.621 11.1813 406.941 11L407.789 12.6ZM418.025 4.232C418.697 4.232 419.235 4.46133 419.641 4.92C420.046 5.368 420.249 5.992 420.249 6.792V13H417.721V7.224C417.721 6.46667 417.481 6.088 417.001 6.088C416.734 6.088 416.499 6.17867 416.297 6.36C416.094 6.54133 415.897 6.81867 415.705 7.192V13H413.177V7.224C413.177 6.46667 412.937 6.088 412.457 6.088C412.201 6.088 411.966 6.184 411.753 6.376C411.55 6.55733 411.353 6.82933 411.161 7.192V13H408.633V4.504H410.841L411.017 5.496C411.347 5.06933 411.71 4.75467 412.105 4.552C412.51 4.33867 412.969 4.232 413.481 4.232C413.961 4.232 414.371 4.34933 414.713 4.584C415.065 4.81867 415.321 5.14933 415.481 5.576C415.822 5.11733 416.195 4.78133 416.601 4.568C417.017 4.344 417.491 4.232 418.025 4.232ZM429.556 8.584C429.556 8.936 429.54 9.24 429.508 9.496H424.244C424.33 10.2107 424.532 10.712 424.852 11C425.172 11.288 425.615 11.432 426.18 11.432C426.522 11.432 426.852 11.3733 427.172 11.256C427.492 11.128 427.839 10.936 428.212 10.68L429.252 12.088C428.26 12.8773 427.156 13.272 425.94 13.272C424.564 13.272 423.508 12.8667 422.772 12.056C422.036 11.2453 421.668 10.1573 421.668 8.792C421.668 7.928 421.823 7.15467 422.132 6.472C422.442 5.77867 422.895 5.23467 423.492 4.84C424.09 4.43467 424.804 4.232 425.636 4.232C426.863 4.232 427.823 4.616 428.516 5.384C429.21 6.152 429.556 7.21867 429.556 8.584ZM427.076 7.864C427.055 6.56267 426.596 5.912 425.7 5.912C425.263 5.912 424.922 6.072 424.676 6.392C424.442 6.712 424.298 7.24 424.244 7.976H427.076V7.864ZM435.952 4.232C436.688 4.232 437.264 4.456 437.68 4.904C438.096 5.352 438.304 5.98133 438.304 6.792V13H435.776V7.224C435.776 6.79733 435.707 6.504 435.568 6.344C435.44 6.17333 435.243 6.088 434.976 6.088C434.464 6.088 433.974 6.456 433.504 7.192V13H430.976V4.504H433.184L433.36 5.512C433.723 5.08533 434.112 4.76533 434.528 4.552C434.955 4.33867 435.43 4.232 435.952 4.232ZM445.539 12.6C445.229 12.8133 444.867 12.9787 444.451 13.096C444.045 13.2133 443.64 13.272 443.235 13.272C441.379 13.2613 440.451 12.2373 440.451 10.2V6.264H439.251V4.504H440.451V2.664L442.979 2.376V4.504H444.931L444.659 6.264H442.979V10.168C442.979 10.5627 443.043 10.8453 443.171 11.016C443.299 11.1867 443.501 11.272 443.779 11.272C444.067 11.272 444.371 11.1813 444.691 11L445.539 12.6ZM453.86 4.232C454.446 4.232 454.974 4.31733 455.444 4.488C455.913 4.65867 456.356 4.92 456.772 5.272L455.684 6.776C455.15 6.37067 454.612 6.168 454.068 6.168C453.502 6.168 453.076 6.376 452.788 6.792C452.5 7.208 452.356 7.88 452.356 8.808C452.356 9.704 452.5 10.3387 452.788 10.712C453.076 11.0853 453.492 11.272 454.036 11.272C454.324 11.272 454.585 11.2293 454.82 11.144C455.054 11.048 455.337 10.8987 455.668 10.696L456.772 12.264C455.929 12.936 454.974 13.272 453.908 13.272C453.044 13.272 452.297 13.0907 451.668 12.728C451.038 12.3547 450.553 11.8373 450.212 11.176C449.87 10.504 449.7 9.72 449.7 8.824C449.7 7.928 449.87 7.13333 450.212 6.44C450.553 5.74667 451.038 5.208 451.668 4.824C452.297 4.42933 453.028 4.232 453.86 4.232ZM462.812 4.232C463.548 4.232 464.124 4.456 464.54 4.904C464.956 5.352 465.164 5.98133 465.164 6.792V13H462.636V7.224C462.636 6.79733 462.566 6.504 462.428 6.344C462.289 6.17333 462.092 6.088 461.836 6.088C461.324 6.088 460.833 6.45067 460.364 7.176V13H457.836V1.128L460.364 0.872V5.416C460.716 5.02133 461.089 4.728 461.484 4.536C461.878 4.33333 462.321 4.232 462.812 4.232ZM473.822 10.536C473.822 10.856 473.865 11.0907 473.95 11.24C474.046 11.3893 474.195 11.5013 474.398 11.576L473.87 13.224C473.347 13.1813 472.921 13.0693 472.59 12.888C472.259 12.696 472.003 12.3973 471.822 11.992C471.267 12.8453 470.414 13.272 469.262 13.272C468.419 13.272 467.747 13.0267 467.246 12.536C466.745 12.0453 466.494 11.4053 466.494 10.616C466.494 9.688 466.835 8.97867 467.518 8.488C468.201 7.99733 469.187 7.752 470.478 7.752H471.342V7.384C471.342 6.88267 471.235 6.54133 471.022 6.36C470.809 6.168 470.435 6.072 469.902 6.072C469.625 6.072 469.289 6.11467 468.894 6.2C468.499 6.27467 468.094 6.38133 467.678 6.52L467.102 4.856C467.635 4.65333 468.179 4.49867 468.734 4.392C469.299 4.28533 469.822 4.232 470.302 4.232C471.518 4.232 472.409 4.48267 472.974 4.984C473.539 5.48533 473.822 6.23733 473.822 7.24V10.536ZM469.998 11.464C470.574 11.464 471.022 11.192 471.342 10.648V9.144H470.718C470.142 9.144 469.71 9.24533 469.422 9.448C469.145 9.65067 469.006 9.96533 469.006 10.392C469.006 10.7333 469.091 11 469.262 11.192C469.443 11.3733 469.689 11.464 469.998 11.464ZM480.444 4.264C480.753 4.264 481.036 4.30133 481.292 4.376L480.892 6.824C480.572 6.74933 480.316 6.712 480.124 6.712C479.622 6.712 479.238 6.888 478.972 7.24C478.716 7.58133 478.513 8.09867 478.364 8.792V13H475.836V4.504H478.044L478.252 6.152C478.444 5.56533 478.732 5.10667 479.116 4.776C479.51 4.43467 479.953 4.264 480.444 4.264ZM487.586 12.6C487.276 12.8133 486.914 12.9787 486.498 13.096C486.092 13.2133 485.687 13.272 485.282 13.272C483.426 13.2613 482.498 12.2373 482.498 10.2V6.264H481.298V4.504H482.498V2.664L485.026 2.376V4.504H486.978L486.706 6.264H485.026V10.168C485.026 10.5627 485.09 10.8453 485.218 11.016C485.346 11.1867 485.548 11.272 485.826 11.272C486.114 11.272 486.418 11.1813 486.738 11L487.586 12.6Z" fill="#002058"/>
<path opacity="0.45" d="M48.2391 294.693C49.1831 294.693 49.8991 295.053 50.3871 295.773C50.8831 296.493 51.1311 297.529 51.1311 298.881C51.1311 300.241 50.8831 301.285 50.3871 302.013C49.8991 302.733 49.1831 303.093 48.2391 303.093C47.2951 303.093 46.5751 302.733 46.0791 302.013C45.5911 301.285 45.3471 300.241 45.3471 298.881C45.3471 297.529 45.5911 296.493 46.0791 295.773C46.5751 295.053 47.2951 294.693 48.2391 294.693ZM48.2391 295.857C47.7831 295.857 47.4511 296.089 47.2431 296.553C47.0351 297.009 46.9311 297.785 46.9311 298.881C46.9311 299.985 47.0351 300.769 47.2431 301.233C47.4511 301.697 47.7831 301.929 48.2391 301.929C48.6951 301.929 49.0271 301.701 49.2351 301.245C49.4431 300.781 49.5471 299.993 49.5471 298.881C49.5471 297.777 49.4431 296.997 49.2351 296.541C49.0271 296.085 48.6951 295.857 48.2391 295.857ZM55.31 299.769V298.545H58.934V299.769H55.31ZM66.8093 294.837V302.913H65.2973V296.385L63.4973 297.477L62.8253 296.445L65.4533 294.837H66.8093ZM71.3837 294.693C72.3277 294.693 73.0437 295.053 73.5317 295.773C74.0277 296.493 74.2757 297.529 74.2757 298.881C74.2757 300.241 74.0277 301.285 73.5317 302.013C73.0437 302.733 72.3277 303.093 71.3837 303.093C70.4397 303.093 69.7197 302.733 69.2237 302.013C68.7357 301.285 68.4917 300.241 68.4917 298.881C68.4917 297.529 68.7357 296.493 69.2237 295.773C69.7197 295.053 70.4397 294.693 71.3837 294.693ZM71.3837 295.857C70.9277 295.857 70.5957 296.089 70.3877 296.553C70.1797 297.009 70.0757 297.785 70.0757 298.881C70.0757 299.985 70.1797 300.769 70.3877 301.233C70.5957 301.697 70.9277 301.929 71.3837 301.929C71.8397 301.929 72.1717 301.701 72.3797 301.245C72.5877 300.781 72.6917 299.993 72.6917 298.881C72.6917 297.777 72.5877 296.997 72.3797 296.541C72.1717 296.085 71.8397 295.857 71.3837 295.857ZM82.1866 294.321L83.1826 294.957L77.6146 303.345L76.6306 302.709L82.1866 294.321ZM77.3146 294.693C77.6986 294.693 78.0466 294.781 78.3586 294.957C78.6706 295.125 78.9146 295.369 79.0906 295.689C79.2746 296.009 79.3666 296.377 79.3666 296.793C79.3666 297.209 79.2746 297.577 79.0906 297.897C78.9146 298.217 78.6706 298.465 78.3586 298.641C78.0466 298.809 77.6986 298.893 77.3146 298.893C76.9306 298.893 76.5826 298.809 76.2706 298.641C75.9666 298.465 75.7226 298.217 75.5386 297.897C75.3626 297.577 75.2746 297.209 75.2746 296.793C75.2746 296.377 75.3626 296.009 75.5386 295.689C75.7226 295.369 75.9666 295.125 76.2706 294.957C76.5826 294.781 76.9306 294.693 77.3146 294.693ZM77.3146 295.653C77.0026 295.653 76.7786 295.761 76.6426 295.977C76.5146 296.185 76.4506 296.457 76.4506 296.793C76.4506 297.121 76.5146 297.393 76.6426 297.609C76.7786 297.825 77.0026 297.933 77.3146 297.933C77.8906 297.933 78.1786 297.553 78.1786 296.793C78.1786 296.033 77.8906 295.653 77.3146 295.653ZM82.4746 298.893C82.8586 298.893 83.2066 298.981 83.5186 299.157C83.8306 299.325 84.0746 299.569 84.2506 299.889C84.4266 300.209 84.5146 300.577 84.5146 300.993C84.5146 301.409 84.4266 301.777 84.2506 302.097C84.0746 302.417 83.8306 302.665 83.5186 302.841C83.2066 303.009 82.8586 303.093 82.4746 303.093C82.0906 303.093 81.7426 303.009 81.4306 302.841C81.1186 302.665 80.8706 302.417 80.6866 302.097C80.5106 301.777 80.4226 301.409 80.4226 300.993C80.4226 300.577 80.5106 300.209 80.6866 299.889C80.8706 299.569 81.1186 299.325 81.4306 299.157C81.7426 298.981 82.0906 298.893 82.4746 298.893ZM82.4746 299.853C82.1626 299.853 81.9386 299.961 81.8026 300.177C81.6746 300.385 81.6106 300.657 81.6106 300.993C81.6106 301.321 81.6746 301.593 81.8026 301.809C81.9386 302.025 82.1626 302.133 82.4746 302.133C83.0506 302.133 83.3386 301.753 83.3386 300.993C83.3386 300.233 83.0506 299.853 82.4746 299.853Z" fill="#002058"/>
<path opacity="0.45" d="M102.886 294.837V302.913H101.374V296.385L99.5745 297.477L98.9025 296.445L101.53 294.837H102.886ZM108.101 294.837V302.913H106.589V296.385L104.789 297.477L104.117 296.445L106.745 294.837H108.101ZM112.868 299.769V298.545H116.492V299.769H112.868ZM122.903 294.693C123.447 294.693 123.915 294.793 124.307 294.993C124.707 295.193 125.011 295.465 125.219 295.809C125.427 296.153 125.531 296.537 125.531 296.961C125.531 297.417 125.431 297.857 125.231 298.281C125.039 298.697 124.715 299.161 124.259 299.673C123.803 300.185 123.135 300.861 122.255 301.701H125.711L125.543 302.913H120.515V301.785C121.539 300.745 122.271 299.977 122.711 299.481C123.159 298.977 123.475 298.549 123.659 298.197C123.851 297.837 123.947 297.465 123.947 297.081C123.947 296.713 123.839 296.425 123.623 296.217C123.415 296.009 123.135 295.905 122.783 295.905C122.471 295.905 122.195 295.973 121.955 296.109C121.723 296.237 121.479 296.453 121.223 296.757L120.287 296.013C120.967 295.133 121.839 294.693 122.903 294.693ZM129.621 294.693C130.565 294.693 131.281 295.053 131.769 295.773C132.265 296.493 132.513 297.529 132.513 298.881C132.513 300.241 132.265 301.285 131.769 302.013C131.281 302.733 130.565 303.093 129.621 303.093C128.677 303.093 127.957 302.733 127.461 302.013C126.973 301.285 126.729 300.241 126.729 298.881C126.729 297.529 126.973 296.493 127.461 295.773C127.957 295.053 128.677 294.693 129.621 294.693ZM129.621 295.857C129.165 295.857 128.833 296.089 128.625 296.553C128.417 297.009 128.313 297.785 128.313 298.881C128.313 299.985 128.417 300.769 128.625 301.233C128.833 301.697 129.165 301.929 129.621 301.929C130.077 301.929 130.409 301.701 130.617 301.245C130.825 300.781 130.929 299.993 130.929 298.881C130.929 297.777 130.825 296.997 130.617 296.541C130.409 296.085 130.077 295.857 129.621 295.857ZM140.424 294.321L141.42 294.957L135.852 303.345L134.868 302.709L140.424 294.321ZM135.552 294.693C135.936 294.693 136.284 294.781 136.596 294.957C136.908 295.125 137.152 295.369 137.328 295.689C137.512 296.009 137.604 296.377 137.604 296.793C137.604 297.209 137.512 297.577 137.328 297.897C137.152 298.217 136.908 298.465 136.596 298.641C136.284 298.809 135.936 298.893 135.552 298.893C135.168 298.893 134.82 298.809 134.508 298.641C134.204 298.465 133.96 298.217 133.776 297.897C133.6 297.577 133.512 297.209 133.512 296.793C133.512 296.377 133.6 296.009 133.776 295.689C133.96 295.369 134.204 295.125 134.508 294.957C134.82 294.781 135.168 294.693 135.552 294.693ZM135.552 295.653C135.24 295.653 135.016 295.761 134.88 295.977C134.752 296.185 134.688 296.457 134.688 296.793C134.688 297.121 134.752 297.393 134.88 297.609C135.016 297.825 135.24 297.933 135.552 297.933C136.128 297.933 136.416 297.553 136.416 296.793C136.416 296.033 136.128 295.653 135.552 295.653ZM140.712 298.893C141.096 298.893 141.444 298.981 141.756 299.157C142.068 299.325 142.312 299.569 142.488 299.889C142.664 300.209 142.752 300.577 142.752 300.993C142.752 301.409 142.664 301.777 142.488 302.097C142.312 302.417 142.068 302.665 141.756 302.841C141.444 303.009 141.096 303.093 140.712 303.093C140.328 303.093 139.98 303.009 139.668 302.841C139.356 302.665 139.108 302.417 138.924 302.097C138.748 301.777 138.66 301.409 138.66 300.993C138.66 300.577 138.748 300.209 138.924 299.889C139.108 299.569 139.356 299.325 139.668 299.157C139.98 298.981 140.328 298.893 140.712 298.893ZM140.712 299.853C140.4 299.853 140.176 299.961 140.04 300.177C139.912 300.385 139.848 300.657 139.848 300.993C139.848 301.321 139.912 301.593 140.04 301.809C140.176 302.025 140.4 302.133 140.712 302.133C141.288 302.133 141.576 301.753 141.576 300.993C141.576 300.233 141.288 299.853 140.712 299.853Z" fill="#002058"/>
<path opacity="0.45" d="M161.037 294.693C161.581 294.693 162.049 294.793 162.441 294.993C162.841 295.193 163.145 295.465 163.353 295.809C163.561 296.153 163.665 296.537 163.665 296.961C163.665 297.417 163.565 297.857 163.365 298.281C163.173 298.697 162.849 299.161 162.393 299.673C161.937 300.185 161.269 300.861 160.389 301.701H163.845L163.677 302.913H158.649V301.785C159.673 300.745 160.405 299.977 160.845 299.481C161.293 298.977 161.609 298.549 161.793 298.197C161.985 297.837 162.081 297.465 162.081 297.081C162.081 296.713 161.973 296.425 161.757 296.217C161.549 296.009 161.269 295.905 160.917 295.905C160.605 295.905 160.329 295.973 160.089 296.109C159.857 296.237 159.613 296.453 159.357 296.757L158.421 296.013C159.101 295.133 159.973 294.693 161.037 294.693ZM168.302 294.837V302.913H166.79V296.385L164.99 297.477L164.318 296.445L166.946 294.837H168.302ZM173.068 299.769V298.545H176.692V299.769H173.068ZM183.092 294.693C183.628 294.693 184.088 294.785 184.472 294.969C184.864 295.153 185.156 295.401 185.348 295.713C185.548 296.025 185.648 296.369 185.648 296.745C185.648 297.233 185.508 297.641 185.228 297.969C184.948 298.289 184.564 298.513 184.076 298.641C184.612 298.689 185.052 298.881 185.396 299.217C185.74 299.553 185.912 300.017 185.912 300.609C185.912 301.073 185.792 301.493 185.552 301.869C185.32 302.245 184.984 302.545 184.544 302.769C184.104 302.985 183.584 303.093 182.984 303.093C181.88 303.093 181.008 302.705 180.368 301.929L181.22 301.113C181.492 301.385 181.76 301.585 182.024 301.713C182.288 301.833 182.58 301.893 182.9 301.893C183.332 301.893 183.676 301.773 183.932 301.533C184.196 301.285 184.328 300.953 184.328 300.537C184.328 300.073 184.204 299.741 183.956 299.541C183.716 299.341 183.356 299.241 182.876 299.241H182.24L182.42 298.149H182.852C183.244 298.149 183.556 298.041 183.788 297.825C184.028 297.609 184.148 297.309 184.148 296.925C184.148 296.597 184.04 296.341 183.824 296.157C183.608 295.965 183.32 295.869 182.96 295.869C182.648 295.869 182.364 295.929 182.108 296.049C181.852 296.161 181.596 296.337 181.34 296.577L180.56 295.725C181.288 295.037 182.132 294.693 183.092 294.693ZM189.857 294.693C190.801 294.693 191.517 295.053 192.005 295.773C192.501 296.493 192.749 297.529 192.749 298.881C192.749 300.241 192.501 301.285 192.005 302.013C191.517 302.733 190.801 303.093 189.857 303.093C188.913 303.093 188.193 302.733 187.697 302.013C187.209 301.285 186.965 300.241 186.965 298.881C186.965 297.529 187.209 296.493 187.697 295.773C188.193 295.053 188.913 294.693 189.857 294.693ZM189.857 295.857C189.401 295.857 189.069 296.089 188.861 296.553C188.653 297.009 188.549 297.785 188.549 298.881C188.549 299.985 188.653 300.769 188.861 301.233C189.069 301.697 189.401 301.929 189.857 301.929C190.313 301.929 190.645 301.701 190.853 301.245C191.061 300.781 191.165 299.993 191.165 298.881C191.165 297.777 191.061 296.997 190.853 296.541C190.645 296.085 190.313 295.857 189.857 295.857ZM200.66 294.321L201.656 294.957L196.088 303.345L195.104 302.709L200.66 294.321ZM195.788 294.693C196.172 294.693 196.52 294.781 196.832 294.957C197.144 295.125 197.388 295.369 197.564 295.689C197.748 296.009 197.84 296.377 197.84 296.793C197.84 297.209 197.748 297.577 197.564 297.897C197.388 298.217 197.144 298.465 196.832 298.641C196.52 298.809 196.172 298.893 195.788 298.893C195.404 298.893 195.056 298.809 194.744 298.641C194.44 298.465 194.196 298.217 194.012 297.897C193.836 297.577 193.748 297.209 193.748 296.793C193.748 296.377 193.836 296.009 194.012 295.689C194.196 295.369 194.44 295.125 194.744 294.957C195.056 294.781 195.404 294.693 195.788 294.693ZM195.788 295.653C195.476 295.653 195.252 295.761 195.116 295.977C194.988 296.185 194.924 296.457 194.924 296.793C194.924 297.121 194.988 297.393 195.116 297.609C195.252 297.825 195.476 297.933 195.788 297.933C196.364 297.933 196.652 297.553 196.652 296.793C196.652 296.033 196.364 295.653 195.788 295.653ZM200.948 298.893C201.332 298.893 201.68 298.981 201.992 299.157C202.304 299.325 202.548 299.569 202.724 299.889C202.9 300.209 202.988 300.577 202.988 300.993C202.988 301.409 202.9 301.777 202.724 302.097C202.548 302.417 202.304 302.665 201.992 302.841C201.68 303.009 201.332 303.093 200.948 303.093C200.564 303.093 200.216 303.009 199.904 302.841C199.592 302.665 199.344 302.417 199.16 302.097C198.984 301.777 198.896 301.409 198.896 300.993C198.896 300.577 198.984 300.209 199.16 299.889C199.344 299.569 199.592 299.325 199.904 299.157C200.216 298.981 200.564 298.893 200.948 298.893ZM200.948 299.853C200.636 299.853 200.412 299.961 200.276 300.177C200.148 300.385 200.084 300.657 200.084 300.993C200.084 301.321 200.148 301.593 200.276 301.809C200.412 302.025 200.636 302.133 200.948 302.133C201.524 302.133 201.812 301.753 201.812 300.993C201.812 300.233 201.524 299.853 200.948 299.853Z" fill="#002058"/>
<path d="M220.784 294.78C221.32 294.78 221.78 294.872 222.164 295.056C222.556 295.24 222.848 295.488 223.04 295.8C223.24 296.112 223.34 296.456 223.34 296.832C223.34 297.32 223.2 297.728 222.92 298.056C222.64 298.376 222.256 298.6 221.768 298.728C222.304 298.776 222.744 298.968 223.088 299.304C223.432 299.64 223.604 300.104 223.604 300.696C223.604 301.16 223.484 301.58 223.244 301.956C223.012 302.332 222.676 302.632 222.236 302.856C221.796 303.072 221.276 303.18 220.676 303.18C219.572 303.18 218.7 302.792 218.06 302.016L218.912 301.2C219.184 301.472 219.452 301.672 219.716 301.8C219.98 301.92 220.272 301.98 220.592 301.98C221.024 301.98 221.368 301.86 221.624 301.62C221.888 301.372 222.02 301.04 222.02 300.624C222.02 300.16 221.896 299.828 221.648 299.628C221.408 299.428 221.048 299.328 220.568 299.328H219.932L220.112 298.236H220.544C220.936 298.236 221.248 298.128 221.48 297.912C221.72 297.696 221.84 297.396 221.84 297.012C221.84 296.684 221.732 296.428 221.516 296.244C221.3 296.052 221.012 295.956 220.652 295.956C220.34 295.956 220.056 296.016 219.8 296.136C219.544 296.248 219.288 296.424 219.032 296.664L218.252 295.812C218.98 295.124 219.824 294.78 220.784 294.78ZM228.096 294.924V303H226.584V296.472L224.784 297.564L224.112 296.532L226.74 294.924H228.096ZM232.862 299.856V298.632H236.486V299.856H232.862ZM246.402 299.976V301.152H245.43V303H243.93V301.152H240.498V300.096L242.85 294.768L244.158 295.26L242.094 299.976H243.942L244.098 297.948H245.43V299.976H246.402ZM250.131 294.78C251.075 294.78 251.791 295.14 252.279 295.86C252.775 296.58 253.023 297.616 253.023 298.968C253.023 300.328 252.775 301.372 252.279 302.1C251.791 302.82 251.075 303.18 250.131 303.18C249.187 303.18 248.467 302.82 247.971 302.1C247.483 301.372 247.239 300.328 247.239 298.968C247.239 297.616 247.483 296.58 247.971 295.86C248.467 295.14 249.187 294.78 250.131 294.78ZM250.131 295.944C249.675 295.944 249.343 296.176 249.135 296.64C248.927 297.096 248.823 297.872 248.823 298.968C248.823 300.072 248.927 300.856 249.135 301.32C249.343 301.784 249.675 302.016 250.131 302.016C250.587 302.016 250.919 301.788 251.127 301.332C251.335 300.868 251.439 300.08 251.439 298.968C251.439 297.864 251.335 297.084 251.127 296.628C250.919 296.172 250.587 295.944 250.131 295.944ZM260.934 294.408L261.93 295.044L256.362 303.432L255.378 302.796L260.934 294.408ZM256.062 294.78C256.446 294.78 256.794 294.868 257.106 295.044C257.418 295.212 257.662 295.456 257.838 295.776C258.022 296.096 258.114 296.464 258.114 296.88C258.114 297.296 258.022 297.664 257.838 297.984C257.662 298.304 257.418 298.552 257.106 298.728C256.794 298.896 256.446 298.98 256.062 298.98C255.678 298.98 255.33 298.896 255.018 298.728C254.714 298.552 254.47 298.304 254.286 297.984C254.11 297.664 254.022 297.296 254.022 296.88C254.022 296.464 254.11 296.096 254.286 295.776C254.47 295.456 254.714 295.212 255.018 295.044C255.33 294.868 255.678 294.78 256.062 294.78ZM256.062 295.74C255.75 295.74 255.526 295.848 255.39 296.064C255.262 296.272 255.198 296.544 255.198 296.88C255.198 297.208 255.262 297.48 255.39 297.696C255.526 297.912 255.75 298.02 256.062 298.02C256.638 298.02 256.926 297.64 256.926 296.88C256.926 296.12 256.638 295.74 256.062 295.74ZM261.222 298.98C261.606 298.98 261.954 299.068 262.266 299.244C262.578 299.412 262.822 299.656 262.998 299.976C263.174 300.296 263.262 300.664 263.262 301.08C263.262 301.496 263.174 301.864 262.998 302.184C262.822 302.504 262.578 302.752 262.266 302.928C261.954 303.096 261.606 303.18 261.222 303.18C260.838 303.18 260.49 303.096 260.178 302.928C259.866 302.752 259.618 302.504 259.434 302.184C259.258 301.864 259.17 301.496 259.17 301.08C259.17 300.664 259.258 300.296 259.434 299.976C259.618 299.656 259.866 299.412 260.178 299.244C260.49 299.068 260.838 298.98 261.222 298.98ZM261.222 299.94C260.91 299.94 260.686 300.048 260.55 300.264C260.422 300.472 260.358 300.744 260.358 301.08C260.358 301.408 260.422 301.68 260.55 301.896C260.686 302.112 260.91 302.22 261.222 302.22C261.798 302.22 262.086 301.84 262.086 301.08C262.086 300.32 261.798 299.94 261.222 299.94Z" fill="#002058"/>
<path opacity="0.45" d="M283.77 299.889V301.065H282.798V302.913H281.298V301.065H277.866V300.009L280.218 294.681L281.526 295.173L279.462 299.889H281.31L281.466 297.861H282.798V299.889H283.77ZM287.543 294.837V302.913H286.031V296.385L284.231 297.477L283.559 296.445L286.187 294.837H287.543ZM292.309 299.769V298.545H295.933V299.769H292.309ZM301.699 295.977H298.675V297.981C299.075 297.781 299.483 297.681 299.899 297.681C300.347 297.681 300.747 297.785 301.099 297.993C301.451 298.201 301.723 298.501 301.915 298.893C302.115 299.285 302.215 299.749 302.215 300.285C302.215 300.837 302.091 301.325 301.843 301.749C301.595 302.173 301.243 302.505 300.787 302.745C300.331 302.977 299.803 303.093 299.203 303.093C298.667 303.093 298.191 302.997 297.775 302.805C297.367 302.605 296.995 302.321 296.659 301.953L297.535 301.137C297.999 301.649 298.543 301.905 299.167 301.905C299.623 301.905 299.979 301.765 300.235 301.485C300.499 301.205 300.631 300.805 300.631 300.285C300.631 299.285 300.199 298.785 299.335 298.785C299.151 298.785 298.979 298.809 298.819 298.857C298.659 298.897 298.483 298.965 298.291 299.061H297.199V294.837H301.879L301.699 295.977ZM306.098 294.693C307.042 294.693 307.758 295.053 308.246 295.773C308.742 296.493 308.99 297.529 308.99 298.881C308.99 300.241 308.742 301.285 308.246 302.013C307.758 302.733 307.042 303.093 306.098 303.093C305.154 303.093 304.434 302.733 303.938 302.013C303.45 301.285 303.206 300.241 303.206 298.881C303.206 297.529 303.45 296.493 303.938 295.773C304.434 295.053 305.154 294.693 306.098 294.693ZM306.098 295.857C305.642 295.857 305.31 296.089 305.102 296.553C304.894 297.009 304.79 297.785 304.79 298.881C304.79 299.985 304.894 300.769 305.102 301.233C305.31 301.697 305.642 301.929 306.098 301.929C306.554 301.929 306.886 301.701 307.094 301.245C307.302 300.781 307.406 299.993 307.406 298.881C307.406 297.777 307.302 296.997 307.094 296.541C306.886 296.085 306.554 295.857 306.098 295.857ZM316.9 294.321L317.896 294.957L312.328 303.345L311.344 302.709L316.9 294.321ZM312.028 294.693C312.412 294.693 312.76 294.781 313.072 294.957C313.384 295.125 313.628 295.369 313.804 295.689C313.988 296.009 314.08 296.377 314.08 296.793C314.08 297.209 313.988 297.577 313.804 297.897C313.628 298.217 313.384 298.465 313.072 298.641C312.76 298.809 312.412 298.893 312.028 298.893C311.644 298.893 311.296 298.809 310.984 298.641C310.68 298.465 310.436 298.217 310.252 297.897C310.076 297.577 309.988 297.209 309.988 296.793C309.988 296.377 310.076 296.009 310.252 295.689C310.436 295.369 310.68 295.125 310.984 294.957C311.296 294.781 311.644 294.693 312.028 294.693ZM312.028 295.653C311.716 295.653 311.492 295.761 311.356 295.977C311.228 296.185 311.164 296.457 311.164 296.793C311.164 297.121 311.228 297.393 311.356 297.609C311.492 297.825 311.716 297.933 312.028 297.933C312.604 297.933 312.892 297.553 312.892 296.793C312.892 296.033 312.604 295.653 312.028 295.653ZM317.188 298.893C317.572 298.893 317.92 298.981 318.232 299.157C318.544 299.325 318.788 299.569 318.964 299.889C319.14 300.209 319.228 300.577 319.228 300.993C319.228 301.409 319.14 301.777 318.964 302.097C318.788 302.417 318.544 302.665 318.232 302.841C317.92 303.009 317.572 303.093 317.188 303.093C316.804 303.093 316.456 303.009 316.144 302.841C315.832 302.665 315.584 302.417 315.4 302.097C315.224 301.777 315.136 301.409 315.136 300.993C315.136 300.577 315.224 300.209 315.4 299.889C315.584 299.569 315.832 299.325 316.144 299.157C316.456 298.981 316.804 298.893 317.188 298.893ZM317.188 299.853C316.876 299.853 316.652 299.961 316.516 300.177C316.388 300.385 316.324 300.657 316.324 300.993C316.324 301.321 316.388 301.593 316.516 301.809C316.652 302.025 316.876 302.133 317.188 302.133C317.764 302.133 318.052 301.753 318.052 300.993C318.052 300.233 317.764 299.853 317.188 299.853Z" fill="#002058"/>
<path opacity="0.45" d="M339.869 295.977H336.845V297.981C337.245 297.781 337.653 297.681 338.069 297.681C338.517 297.681 338.917 297.785 339.269 297.993C339.621 298.201 339.893 298.501 340.085 298.893C340.285 299.285 340.385 299.749 340.385 300.285C340.385 300.837 340.261 301.325 340.013 301.749C339.765 302.173 339.413 302.505 338.957 302.745C338.501 302.977 337.973 303.093 337.373 303.093C336.837 303.093 336.361 302.997 335.945 302.805C335.537 302.605 335.165 302.321 334.829 301.953L335.705 301.137C336.169 301.649 336.713 301.905 337.337 301.905C337.793 301.905 338.149 301.765 338.405 301.485C338.669 301.205 338.801 300.805 338.801 300.285C338.801 299.285 338.369 298.785 337.505 298.785C337.321 298.785 337.149 298.809 336.989 298.857C336.829 298.897 336.653 298.965 336.461 299.061H335.369V294.837H340.049L339.869 295.977ZM344.451 294.837V302.913H342.939V296.385L341.139 297.477L340.467 296.445L343.095 294.837H344.451ZM349.217 299.769V298.545H352.841V299.769H349.217ZM360.393 297.537C360.817 297.537 361.201 297.641 361.545 297.849C361.897 298.049 362.173 298.349 362.373 298.749C362.573 299.141 362.673 299.613 362.673 300.165C362.673 300.725 362.557 301.229 362.325 301.677C362.093 302.117 361.765 302.465 361.341 302.721C360.925 302.969 360.449 303.093 359.913 303.093C358.921 303.093 358.185 302.745 357.705 302.049C357.233 301.353 356.997 300.397 356.997 299.181C356.997 298.285 357.129 297.501 357.393 296.829C357.665 296.149 358.049 295.625 358.545 295.257C359.049 294.881 359.637 294.693 360.309 294.693C360.973 294.693 361.561 294.865 362.073 295.209L361.497 296.157C361.129 295.941 360.741 295.833 360.333 295.833C359.821 295.833 359.409 296.065 359.097 296.529C358.793 296.985 358.621 297.617 358.581 298.425C359.069 297.833 359.673 297.537 360.393 297.537ZM359.913 301.953C360.313 301.953 360.613 301.797 360.813 301.485C361.021 301.165 361.125 300.733 361.125 300.189C361.125 299.637 361.029 299.245 360.837 299.013C360.653 298.773 360.381 298.653 360.021 298.653C359.749 298.653 359.489 298.729 359.241 298.881C359.001 299.025 358.785 299.225 358.593 299.481C358.609 300.353 358.717 300.985 358.917 301.377C359.125 301.761 359.457 301.953 359.913 301.953ZM366.486 294.693C367.43 294.693 368.146 295.053 368.634 295.773C369.13 296.493 369.378 297.529 369.378 298.881C369.378 300.241 369.13 301.285 368.634 302.013C368.146 302.733 367.43 303.093 366.486 303.093C365.542 303.093 364.822 302.733 364.326 302.013C363.838 301.285 363.594 300.241 363.594 298.881C363.594 297.529 363.838 296.493 364.326 295.773C364.822 295.053 365.542 294.693 366.486 294.693ZM366.486 295.857C366.03 295.857 365.698 296.089 365.49 296.553C365.282 297.009 365.178 297.785 365.178 298.881C365.178 299.985 365.282 300.769 365.49 301.233C365.698 301.697 366.03 301.929 366.486 301.929C366.942 301.929 367.274 301.701 367.482 301.245C367.69 300.781 367.794 299.993 367.794 298.881C367.794 297.777 367.69 296.997 367.482 296.541C367.274 296.085 366.942 295.857 366.486 295.857ZM377.289 294.321L378.285 294.957L372.717 303.345L371.733 302.709L377.289 294.321ZM372.417 294.693C372.801 294.693 373.149 294.781 373.461 294.957C373.773 295.125 374.017 295.369 374.193 295.689C374.377 296.009 374.469 296.377 374.469 296.793C374.469 297.209 374.377 297.577 374.193 297.897C374.017 298.217 373.773 298.465 373.461 298.641C373.149 298.809 372.801 298.893 372.417 298.893C372.033 298.893 371.685 298.809 371.373 298.641C371.069 298.465 370.825 298.217 370.641 297.897C370.465 297.577 370.377 297.209 370.377 296.793C370.377 296.377 370.465 296.009 370.641 295.689C370.825 295.369 371.069 295.125 371.373 294.957C371.685 294.781 372.033 294.693 372.417 294.693ZM372.417 295.653C372.105 295.653 371.881 295.761 371.745 295.977C371.617 296.185 371.553 296.457 371.553 296.793C371.553 297.121 371.617 297.393 371.745 297.609C371.881 297.825 372.105 297.933 372.417 297.933C372.993 297.933 373.281 297.553 373.281 296.793C373.281 296.033 372.993 295.653 372.417 295.653ZM377.577 298.893C377.961 298.893 378.309 298.981 378.621 299.157C378.933 299.325 379.177 299.569 379.353 299.889C379.529 300.209 379.617 300.577 379.617 300.993C379.617 301.409 379.529 301.777 379.353 302.097C379.177 302.417 378.933 302.665 378.621 302.841C378.309 303.009 377.961 303.093 377.577 303.093C377.193 303.093 376.845 303.009 376.533 302.841C376.221 302.665 375.973 302.417 375.789 302.097C375.613 301.777 375.525 301.409 375.525 300.993C375.525 300.577 375.613 300.209 375.789 299.889C375.973 299.569 376.221 299.325 376.533 299.157C376.845 298.981 377.193 298.893 377.577 298.893ZM377.577 299.853C377.265 299.853 377.041 299.961 376.905 300.177C376.777 300.385 376.713 300.657 376.713 300.993C376.713 301.321 376.777 301.593 376.905 301.809C377.041 302.025 377.265 302.133 377.577 302.133C378.153 302.133 378.441 301.753 378.441 300.993C378.441 300.233 378.153 299.853 377.577 299.853Z" fill="#002058"/>
<path opacity="0.45" d="M398.152 297.537C398.576 297.537 398.96 297.641 399.304 297.849C399.656 298.049 399.932 298.349 400.132 298.749C400.332 299.141 400.432 299.613 400.432 300.165C400.432 300.725 400.316 301.229 400.084 301.677C399.852 302.117 399.524 302.465 399.1 302.721C398.684 302.969 398.208 303.093 397.672 303.093C396.68 303.093 395.944 302.745 395.464 302.049C394.992 301.353 394.756 300.397 394.756 299.181C394.756 298.285 394.888 297.501 395.152 296.829C395.424 296.149 395.808 295.625 396.304 295.257C396.808 294.881 397.396 294.693 398.068 294.693C398.732 294.693 399.32 294.865 399.832 295.209L399.256 296.157C398.888 295.941 398.5 295.833 398.092 295.833C397.58 295.833 397.168 296.065 396.856 296.529C396.552 296.985 396.38 297.617 396.34 298.425C396.828 297.833 397.432 297.537 398.152 297.537ZM397.672 301.953C398.072 301.953 398.372 301.797 398.572 301.485C398.78 301.165 398.884 300.733 398.884 300.189C398.884 299.637 398.788 299.245 398.596 299.013C398.412 298.773 398.14 298.653 397.78 298.653C397.508 298.653 397.248 298.729 397 298.881C396.76 299.025 396.544 299.225 396.352 299.481C396.368 300.353 396.476 300.985 396.676 301.377C396.884 301.761 397.216 301.953 397.672 301.953ZM404.441 294.837V302.913H402.929V296.385L401.129 297.477L400.457 296.445L403.085 294.837H404.441ZM409.207 299.769V298.545H412.831V299.769H409.207ZM421.654 294.837V295.917L418.666 303.069L417.262 302.613L420.07 296.025H416.662V294.837H421.654ZM425.234 294.693C426.178 294.693 426.894 295.053 427.382 295.773C427.878 296.493 428.126 297.529 428.126 298.881C428.126 300.241 427.878 301.285 427.382 302.013C426.894 302.733 426.178 303.093 425.234 303.093C424.29 303.093 423.57 302.733 423.074 302.013C422.586 301.285 422.342 300.241 422.342 298.881C422.342 297.529 422.586 296.493 423.074 295.773C423.57 295.053 424.29 294.693 425.234 294.693ZM425.234 295.857C424.778 295.857 424.446 296.089 424.238 296.553C424.03 297.009 423.926 297.785 423.926 298.881C423.926 299.985 424.03 300.769 424.238 301.233C424.446 301.697 424.778 301.929 425.234 301.929C425.69 301.929 426.022 301.701 426.23 301.245C426.438 300.781 426.542 299.993 426.542 298.881C426.542 297.777 426.438 296.997 426.23 296.541C426.022 296.085 425.69 295.857 425.234 295.857ZM436.037 294.321L437.033 294.957L431.465 303.345L430.481 302.709L436.037 294.321ZM431.165 294.693C431.549 294.693 431.897 294.781 432.209 294.957C432.521 295.125 432.765 295.369 432.941 295.689C433.125 296.009 433.217 296.377 433.217 296.793C433.217 297.209 433.125 297.577 432.941 297.897C432.765 298.217 432.521 298.465 432.209 298.641C431.897 298.809 431.549 298.893 431.165 298.893C430.781 298.893 430.433 298.809 430.121 298.641C429.817 298.465 429.573 298.217 429.389 297.897C429.213 297.577 429.125 297.209 429.125 296.793C429.125 296.377 429.213 296.009 429.389 295.689C429.573 295.369 429.817 295.125 430.121 294.957C430.433 294.781 430.781 294.693 431.165 294.693ZM431.165 295.653C430.853 295.653 430.629 295.761 430.493 295.977C430.365 296.185 430.301 296.457 430.301 296.793C430.301 297.121 430.365 297.393 430.493 297.609C430.629 297.825 430.853 297.933 431.165 297.933C431.741 297.933 432.029 297.553 432.029 296.793C432.029 296.033 431.741 295.653 431.165 295.653ZM436.325 298.893C436.709 298.893 437.057 298.981 437.369 299.157C437.681 299.325 437.925 299.569 438.101 299.889C438.277 300.209 438.365 300.577 438.365 300.993C438.365 301.409 438.277 301.777 438.101 302.097C437.925 302.417 437.681 302.665 437.369 302.841C437.057 303.009 436.709 303.093 436.325 303.093C435.941 303.093 435.593 303.009 435.281 302.841C434.969 302.665 434.721 302.417 434.537 302.097C434.361 301.777 434.273 301.409 434.273 300.993C434.273 300.577 434.361 300.209 434.537 299.889C434.721 299.569 434.969 299.325 435.281 299.157C435.593 298.981 435.941 298.893 436.325 298.893ZM436.325 299.853C436.013 299.853 435.789 299.961 435.653 300.177C435.525 300.385 435.461 300.657 435.461 300.993C435.461 301.321 435.525 301.593 435.653 301.809C435.789 302.025 436.013 302.133 436.325 302.133C436.901 302.133 437.189 301.753 437.189 300.993C437.189 300.233 436.901 299.853 436.325 299.853Z" fill="#002058"/>
<path opacity="0.45" d="M459.039 294.837V295.917L456.051 303.069L454.647 302.613L457.455 296.025H454.047V294.837H459.039ZM463.399 294.837V302.913H461.887V296.385L460.087 297.477L459.415 296.445L462.043 294.837H463.399ZM468.166 299.769V298.545H471.79V299.769H468.166ZM480.121 298.581C481.225 299.077 481.777 299.797 481.777 300.741C481.777 301.181 481.653 301.581 481.405 301.941C481.157 302.293 480.805 302.573 480.349 302.781C479.901 302.989 479.377 303.093 478.777 303.093C478.185 303.093 477.669 302.993 477.229 302.793C476.789 302.585 476.449 302.305 476.209 301.953C475.969 301.601 475.849 301.205 475.849 300.765C475.849 299.837 476.361 299.157 477.385 298.725C476.577 298.285 476.173 297.649 476.173 296.817C476.173 296.393 476.289 296.021 476.521 295.701C476.761 295.373 477.081 295.125 477.481 294.957C477.889 294.781 478.333 294.693 478.813 294.693C479.301 294.693 479.745 294.773 480.145 294.933C480.545 295.093 480.861 295.329 481.093 295.641C481.333 295.953 481.453 296.325 481.453 296.757C481.453 297.517 481.009 298.125 480.121 298.581ZM478.813 295.773C478.453 295.773 478.169 295.865 477.961 296.049C477.761 296.233 477.661 296.497 477.661 296.841C477.661 297.161 477.757 297.417 477.949 297.609C478.141 297.793 478.449 297.961 478.873 298.113L479.101 298.197C479.413 298.005 479.633 297.805 479.761 297.597C479.897 297.381 479.965 297.125 479.965 296.829C479.965 296.501 479.865 296.245 479.665 296.061C479.465 295.869 479.181 295.773 478.813 295.773ZM478.813 301.953C479.253 301.953 479.597 301.841 479.845 301.617C480.093 301.393 480.217 301.101 480.217 300.741C480.217 300.373 480.109 300.085 479.893 299.877C479.677 299.661 479.293 299.453 478.741 299.253L478.369 299.121C477.721 299.465 477.397 299.997 477.397 300.717C477.397 301.101 477.525 301.405 477.781 301.629C478.037 301.845 478.381 301.953 478.813 301.953ZM485.645 294.693C486.589 294.693 487.305 295.053 487.793 295.773C488.289 296.493 488.537 297.529 488.537 298.881C488.537 300.241 488.289 301.285 487.793 302.013C487.305 302.733 486.589 303.093 485.645 303.093C484.701 303.093 483.981 302.733 483.485 302.013C482.997 301.285 482.753 300.241 482.753 298.881C482.753 297.529 482.997 296.493 483.485 295.773C483.981 295.053 484.701 294.693 485.645 294.693ZM485.645 295.857C485.189 295.857 484.857 296.089 484.649 296.553C484.441 297.009 484.337 297.785 484.337 298.881C484.337 299.985 484.441 300.769 484.649 301.233C484.857 301.697 485.189 301.929 485.645 301.929C486.101 301.929 486.433 301.701 486.641 301.245C486.849 300.781 486.953 299.993 486.953 298.881C486.953 297.777 486.849 296.997 486.641 296.541C486.433 296.085 486.101 295.857 485.645 295.857ZM496.448 294.321L497.444 294.957L491.876 303.345L490.892 302.709L496.448 294.321ZM491.576 294.693C491.96 294.693 492.308 294.781 492.62 294.957C492.932 295.125 493.176 295.369 493.352 295.689C493.536 296.009 493.628 296.377 493.628 296.793C493.628 297.209 493.536 297.577 493.352 297.897C493.176 298.217 492.932 298.465 492.62 298.641C492.308 298.809 491.96 298.893 491.576 298.893C491.192 298.893 490.844 298.809 490.532 298.641C490.228 298.465 489.984 298.217 489.8 297.897C489.624 297.577 489.536 297.209 489.536 296.793C489.536 296.377 489.624 296.009 489.8 295.689C489.984 295.369 490.228 295.125 490.532 294.957C490.844 294.781 491.192 294.693 491.576 294.693ZM491.576 295.653C491.264 295.653 491.04 295.761 490.904 295.977C490.776 296.185 490.712 296.457 490.712 296.793C490.712 297.121 490.776 297.393 490.904 297.609C491.04 297.825 491.264 297.933 491.576 297.933C492.152 297.933 492.44 297.553 492.44 296.793C492.44 296.033 492.152 295.653 491.576 295.653ZM496.736 298.893C497.12 298.893 497.468 298.981 497.78 299.157C498.092 299.325 498.336 299.569 498.512 299.889C498.688 300.209 498.776 300.577 498.776 300.993C498.776 301.409 498.688 301.777 498.512 302.097C498.336 302.417 498.092 302.665 497.78 302.841C497.468 303.009 497.12 303.093 496.736 303.093C496.352 303.093 496.004 303.009 495.692 302.841C495.38 302.665 495.132 302.417 494.948 302.097C494.772 301.777 494.684 301.409 494.684 300.993C494.684 300.577 494.772 300.209 494.948 299.889C495.132 299.569 495.38 299.325 495.692 299.157C496.004 298.981 496.352 298.893 496.736 298.893ZM496.736 299.853C496.424 299.853 496.2 299.961 496.064 300.177C495.936 300.385 495.872 300.657 495.872 300.993C495.872 301.321 495.936 301.593 496.064 301.809C496.2 302.025 496.424 302.133 496.736 302.133C497.312 302.133 497.6 301.753 497.6 300.993C497.6 300.233 497.312 299.853 496.736 299.853Z" fill="#002058"/>
<path opacity="0.45" d="M32.2185 282.136C33.1945 282.136 33.9345 282.5 34.4385 283.228C34.9425 283.948 35.1945 284.988 35.1945 286.348C35.1945 287.708 34.9385 288.752 34.4265 289.48C33.9225 290.208 33.1865 290.572 32.2185 290.572C31.2505 290.572 30.5145 290.208 30.0105 289.48C29.5065 288.752 29.2545 287.708 29.2545 286.348C29.2545 284.988 29.5065 283.948 30.0105 283.228C30.5145 282.5 31.2505 282.136 32.2185 282.136ZM32.2185 283.408C31.9305 283.408 31.6985 283.504 31.5225 283.696C31.3465 283.88 31.2145 284.188 31.1265 284.62C31.0465 285.044 31.0065 285.62 31.0065 286.348C31.0065 287.076 31.0465 287.656 31.1265 288.088C31.2145 288.512 31.3465 288.82 31.5225 289.012C31.6985 289.196 31.9305 289.288 32.2185 289.288C32.5065 289.288 32.7385 289.196 32.9145 289.012C33.0905 288.828 33.2225 288.524 33.3105 288.1C33.3985 287.668 33.4425 287.084 33.4425 286.348C33.4425 285.604 33.3985 285.02 33.3105 284.596C33.2225 284.164 33.0905 283.86 32.9145 283.684C32.7385 283.5 32.5065 283.408 32.2185 283.408Z" fill="#002058"/>
<path opacity="0.45" d="M24.4592 239.256V247.344H22.7912V240.936L21.0152 242.028L20.2712 240.876L22.9592 239.256H24.4592ZM33.2439 240.792C33.7479 240.792 34.1519 240.964 34.4559 241.308C34.7679 241.652 34.9239 242.12 34.9239 242.712V247.344H33.2199V243C33.2199 242.376 33.0119 242.064 32.5959 242.064C32.3719 242.064 32.1759 242.136 32.0079 242.28C31.8399 242.424 31.6679 242.648 31.4919 242.952V247.344H29.7879V243C29.7879 242.376 29.5799 242.064 29.1639 242.064C28.9399 242.064 28.7439 242.14 28.5759 242.292C28.4079 242.436 28.2399 242.656 28.0719 242.952V247.344H26.3679V240.984H27.8439L27.9759 241.776C28.2159 241.456 28.4839 241.212 28.7799 241.044C29.0839 240.876 29.4319 240.792 29.8239 240.792C30.1839 240.792 30.4959 240.884 30.7599 241.068C31.0239 241.244 31.2159 241.496 31.3359 241.824C31.5999 241.48 31.8839 241.224 32.1879 241.056C32.4999 240.88 32.8519 240.792 33.2439 240.792Z" fill="#002058"/>
<path opacity="0.45" d="M24.5518 197.456H21.5638V199.316C21.9558 199.132 22.3638 199.04 22.7878 199.04C23.2358 199.04 23.6318 199.144 23.9758 199.352C24.3278 199.56 24.6038 199.864 24.8038 200.264C25.0038 200.656 25.1038 201.12 25.1038 201.656C25.1038 202.216 24.9758 202.712 24.7198 203.144C24.4638 203.568 24.0998 203.9 23.6278 204.14C23.1638 204.38 22.6238 204.5 22.0078 204.5C20.9678 204.5 20.0958 204.108 19.3918 203.324L20.3518 202.424C20.7998 202.936 21.3358 203.192 21.9598 203.192C22.3998 203.192 22.7398 203.06 22.9798 202.796C23.2278 202.532 23.3518 202.152 23.3518 201.656C23.3518 200.704 22.9438 200.228 22.1278 200.228C21.9518 200.228 21.7838 200.252 21.6238 200.3C21.4718 200.34 21.3038 200.412 21.1198 200.516H19.9318V196.22H24.7558L24.5518 197.456ZM33.2439 197.756C33.7479 197.756 34.1519 197.928 34.4559 198.272C34.7679 198.616 34.9239 199.084 34.9239 199.676V204.308H33.2199V199.964C33.2199 199.34 33.0119 199.028 32.5959 199.028C32.3719 199.028 32.1759 199.1 32.0079 199.244C31.8399 199.388 31.6679 199.612 31.4919 199.916V204.308H29.7879V199.964C29.7879 199.34 29.5799 199.028 29.1639 199.028C28.9399 199.028 28.7439 199.104 28.5759 199.256C28.4079 199.4 28.2399 199.62 28.0719 199.916V204.308H26.3679V197.948H27.8439L27.9759 198.74C28.2159 198.42 28.4839 198.176 28.7799 198.008C29.0839 197.84 29.4319 197.756 29.8239 197.756C30.1839 197.756 30.4959 197.848 30.7599 198.032C31.0239 198.208 31.2159 198.46 31.3359 198.788C31.5999 198.444 31.8839 198.188 32.1879 198.02C32.4999 197.844 32.8519 197.756 33.2439 197.756Z" fill="#002058"/>
<path opacity="0.45" d="M17.5098 153.183V161.271H15.8418V154.863L14.0658 155.955L13.3218 154.803L16.0098 153.183H17.5098ZM22.0464 153.027C23.0224 153.027 23.7624 153.391 24.2664 154.119C24.7704 154.839 25.0224 155.879 25.0224 157.239C25.0224 158.599 24.7664 159.643 24.2544 160.371C23.7504 161.099 23.0144 161.463 22.0464 161.463C21.0784 161.463 20.3424 161.099 19.8384 160.371C19.3344 159.643 19.0824 158.599 19.0824 157.239C19.0824 155.879 19.3344 154.839 19.8384 154.119C20.3424 153.391 21.0784 153.027 22.0464 153.027ZM22.0464 154.299C21.7584 154.299 21.5264 154.395 21.3504 154.587C21.1744 154.771 21.0424 155.079 20.9544 155.511C20.8744 155.935 20.8344 156.511 20.8344 157.239C20.8344 157.967 20.8744 158.547 20.9544 158.979C21.0424 159.403 21.1744 159.711 21.3504 159.903C21.5264 160.087 21.7584 160.179 22.0464 160.179C22.3344 160.179 22.5664 160.087 22.7424 159.903C22.9184 159.719 23.0504 159.415 23.1384 158.991C23.2264 158.559 23.2704 157.975 23.2704 157.239C23.2704 156.495 23.2264 155.911 23.1384 155.487C23.0504 155.055 22.9184 154.751 22.7424 154.575C22.5664 154.391 22.3344 154.299 22.0464 154.299ZM33.2437 154.719C33.7477 154.719 34.1517 154.891 34.4557 155.235C34.7677 155.579 34.9237 156.047 34.9237 156.639V161.271H33.2197V156.927C33.2197 156.303 33.0117 155.991 32.5957 155.991C32.3717 155.991 32.1757 156.063 32.0077 156.207C31.8397 156.351 31.6677 156.575 31.4917 156.879V161.271H29.7877V156.927C29.7877 156.303 29.5797 155.991 29.1637 155.991C28.9397 155.991 28.7437 156.067 28.5757 156.219C28.4077 156.363 28.2397 156.583 28.0717 156.879V161.271H26.3677V154.911H27.8437L27.9757 155.703C28.2157 155.383 28.4837 155.139 28.7797 154.971C29.0837 154.803 29.4317 154.719 29.8237 154.719C30.1837 154.719 30.4957 154.811 30.7597 154.995C31.0237 155.171 31.2157 155.423 31.3357 155.751C31.5997 155.407 31.8837 155.151 32.1877 154.983C32.4997 154.807 32.8517 154.719 33.2437 154.719Z" fill="#002058"/>
<path d="M18.1468 110.123V118.235H16.2868V111.971L14.5468 113.039L13.7188 111.779L16.4548 110.123H18.1468ZM24.5772 111.479H21.6372V113.183C22.0132 113.007 22.4132 112.919 22.8372 112.919C23.2852 112.919 23.6852 113.023 24.0372 113.231C24.3892 113.439 24.6652 113.743 24.8652 114.143C25.0652 114.543 25.1652 115.015 25.1652 115.559C25.1652 116.127 25.0332 116.631 24.7692 117.071C24.5132 117.503 24.1412 117.839 23.6532 118.079C23.1732 118.319 22.6172 118.439 21.9852 118.439C20.8892 118.439 19.9892 118.031 19.2852 117.215L20.3412 116.231C20.7812 116.751 21.3052 117.011 21.9132 117.011C22.3292 117.011 22.6492 116.887 22.8732 116.639C23.1052 116.391 23.2212 116.035 23.2212 115.571C23.2212 114.667 22.8412 114.215 22.0812 114.215C21.9212 114.215 21.7652 114.239 21.6132 114.287C21.4612 114.327 21.2932 114.399 21.1092 114.503H19.8252V110.123H24.7932L24.5772 111.479ZM33.3508 111.659C33.8548 111.659 34.2588 111.831 34.5628 112.175C34.8668 112.511 35.0188 112.979 35.0188 113.579V118.235H33.1228V113.903C33.1228 113.335 32.9428 113.051 32.5828 113.051C32.3828 113.051 32.2068 113.119 32.0548 113.255C31.9028 113.391 31.7548 113.599 31.6108 113.879V118.235H29.7148V113.903C29.7148 113.335 29.5348 113.051 29.1748 113.051C28.9828 113.051 28.8068 113.123 28.6468 113.267C28.4948 113.403 28.3468 113.607 28.2028 113.879V118.235H26.3068V111.863H27.9628L28.0948 112.607C28.3428 112.287 28.6148 112.051 28.9108 111.899C29.2148 111.739 29.5588 111.659 29.9428 111.659C30.3028 111.659 30.6108 111.747 30.8668 111.923C31.1308 112.099 31.3228 112.347 31.4428 112.667C31.6988 112.323 31.9788 112.071 32.2828 111.911C32.5948 111.743 32.9508 111.659 33.3508 111.659Z" fill="#1A0C2F"/>
<path opacity="0.45" d="M15.2698 66.9552C15.8298 66.9552 16.3138 67.0592 16.7218 67.2672C17.1298 67.4672 17.4378 67.7432 17.6458 68.0952C17.8618 68.4392 17.9698 68.8232 17.9698 69.2472C17.9698 69.6872 17.8738 70.1112 17.6818 70.5192C17.4978 70.9272 17.1778 71.3872 16.7218 71.8992C16.2738 72.4112 15.6178 73.0712 14.7538 73.8792H18.1498L17.9578 75.1992H12.8098V73.9632C13.8178 72.9552 14.5458 72.2032 14.9938 71.7072C15.4418 71.2112 15.7578 70.7912 15.9418 70.4472C16.1258 70.1032 16.2178 69.7512 16.2178 69.3912C16.2178 69.0472 16.1178 68.7752 15.9178 68.5752C15.7178 68.3752 15.4498 68.2752 15.1138 68.2752C14.8178 68.2752 14.5538 68.3432 14.3218 68.4792C14.0898 68.6072 13.8458 68.8232 13.5898 69.1272L12.5698 68.3112C13.2578 67.4072 14.1578 66.9552 15.2698 66.9552ZM22.0464 66.9552C23.0224 66.9552 23.7624 67.3192 24.2664 68.0472C24.7704 68.7672 25.0224 69.8072 25.0224 71.1672C25.0224 72.5272 24.7664 73.5712 24.2544 74.2992C23.7504 75.0272 23.0144 75.3912 22.0464 75.3912C21.0784 75.3912 20.3424 75.0272 19.8384 74.2992C19.3344 73.5712 19.0824 72.5272 19.0824 71.1672C19.0824 69.8072 19.3344 68.7672 19.8384 68.0472C20.3424 67.3192 21.0784 66.9552 22.0464 66.9552ZM22.0464 68.2272C21.7584 68.2272 21.5264 68.3232 21.3504 68.5152C21.1744 68.6992 21.0424 69.0072 20.9544 69.4392C20.8744 69.8632 20.8344 70.4392 20.8344 71.1672C20.8344 71.8952 20.8744 72.4752 20.9544 72.9072C21.0424 73.3312 21.1744 73.6392 21.3504 73.8312C21.5264 74.0152 21.7584 74.1072 22.0464 74.1072C22.3344 74.1072 22.5664 74.0152 22.7424 73.8312C22.9184 73.6472 23.0504 73.3432 23.1384 72.9192C23.2264 72.4872 23.2704 71.9032 23.2704 71.1672C23.2704 70.4232 23.2264 69.8392 23.1384 69.4152C23.0504 68.9832 22.9184 68.6792 22.7424 68.5032C22.5664 68.3192 22.3344 68.2272 22.0464 68.2272ZM33.2437 68.6472C33.7477 68.6472 34.1517 68.8192 34.4557 69.1632C34.7677 69.5072 34.9237 69.9752 34.9237 70.5672V75.1992H33.2197V70.8552C33.2197 70.2312 33.0117 69.9192 32.5957 69.9192C32.3717 69.9192 32.1757 69.9912 32.0077 70.1352C31.8397 70.2792 31.6677 70.5032 31.4917 70.8072V75.1992H29.7877V70.8552C29.7877 70.2312 29.5797 69.9192 29.1637 69.9192C28.9397 69.9192 28.7437 69.9952 28.5757 70.1472C28.4077 70.2912 28.2397 70.5112 28.0717 70.8072V75.1992H26.3677V68.8392H27.8437L27.9757 69.6312C28.2157 69.3112 28.4837 69.0672 28.7797 68.8992C29.0837 68.7312 29.4317 68.6472 29.8237 68.6472C30.1837 68.6472 30.4957 68.7392 30.7597 68.9232C31.0237 69.0992 31.2157 69.3512 31.3357 69.6792C31.5997 69.3352 31.8837 69.0792 32.1877 68.9112C32.4997 68.7352 32.8517 68.6472 33.2437 68.6472Z" fill="#002058"/>
<path opacity="0.45" d="M15.8909 23.9188C16.4509 23.9188 16.9349 24.0228 17.3429 24.2308C17.7509 24.4308 18.0589 24.7068 18.2669 25.0588C18.4829 25.4028 18.5909 25.7868 18.5909 26.2108C18.5909 26.6508 18.4949 27.0748 18.3029 27.4828C18.1189 27.8908 17.7989 28.3508 17.3429 28.8628C16.8949 29.3748 16.2389 30.0348 15.3749 30.8428H18.7709L18.5789 32.1628H13.4309V30.9268C14.4389 29.9188 15.1669 29.1668 15.6149 28.6708C16.0629 28.1748 16.3789 27.7548 16.5629 27.4108C16.7469 27.0668 16.8389 26.7148 16.8389 26.3548C16.8389 26.0108 16.7389 25.7388 16.5389 25.5388C16.3389 25.3388 16.0709 25.2388 15.7349 25.2388C15.4389 25.2388 15.1749 25.3068 14.9429 25.4428C14.7109 25.5708 14.4669 25.7868 14.2109 26.0908L13.1909 25.2748C13.8789 24.3708 14.7789 23.9188 15.8909 23.9188ZM24.5515 25.3108H21.5635V27.1708C21.9555 26.9868 22.3635 26.8948 22.7875 26.8948C23.2355 26.8948 23.6315 26.9988 23.9755 27.2068C24.3275 27.4148 24.6035 27.7188 24.8035 28.1188C25.0035 28.5108 25.1035 28.9748 25.1035 29.5108C25.1035 30.0708 24.9755 30.5668 24.7195 30.9988C24.4635 31.4228 24.0995 31.7548 23.6275 31.9948C23.1635 32.2348 22.6235 32.3548 22.0075 32.3548C20.9675 32.3548 20.0955 31.9628 19.3915 31.1788L20.3515 30.2788C20.7995 30.7908 21.3355 31.0468 21.9595 31.0468C22.3995 31.0468 22.7395 30.9148 22.9795 30.6508C23.2275 30.3868 23.3515 30.0068 23.3515 29.5108C23.3515 28.5588 22.9435 28.0828 22.1275 28.0828C21.9515 28.0828 21.7835 28.1068 21.6235 28.1548C21.4715 28.1948 21.3035 28.2668 21.1195 28.3708H19.9315V24.0748H24.7555L24.5515 25.3108ZM33.2437 25.6108C33.7477 25.6108 34.1517 25.7828 34.4557 26.1268C34.7677 26.4708 34.9237 26.9388 34.9237 27.5308V32.1628H33.2197V27.8188C33.2197 27.1948 33.0117 26.8828 32.5957 26.8828C32.3717 26.8828 32.1757 26.9548 32.0077 27.0988C31.8397 27.2428 31.6677 27.4668 31.4917 27.7708V32.1628H29.7877V27.8188C29.7877 27.1948 29.5797 26.8828 29.1637 26.8828C28.9397 26.8828 28.7437 26.9588 28.5757 27.1108C28.4077 27.2548 28.2397 27.4748 28.0717 27.7708V32.1628H26.3677V25.8028H27.8437L27.9757 26.5948C28.2157 26.2748 28.4837 26.0308 28.7797 25.8628C29.0837 25.6948 29.4317 25.6108 29.8237 25.6108C30.1837 25.6108 30.4957 25.7028 30.7597 25.8868C31.0237 26.0628 31.2157 26.3148 31.3357 26.6428C31.5997 26.2988 31.8837 26.0428 32.1877 25.8748C32.4997 25.6988 32.8517 25.6108 33.2437 25.6108Z" fill="#002058"/>
<rect opacity="0.2" x="57.2271" y="144.532" width="19.0436" height="137.445" rx="5" fill="#F9A825"/>
<rect opacity="0.2" x="115.186" y="32.7546" width="19.0436" height="249.222" rx="5" fill="#F9A825"/>
<rect opacity="0.2" x="173.145" y="84.0894" width="19.0436" height="197.888" rx="5" fill="#F9A825"/>
<rect x="231.103" y="105.617" width="19.0436" height="176.36" rx="5" fill="#F9A825"/>
<rect opacity="0.2" x="289.062" y="46.0022" width="19.0436" height="235.975" rx="5" fill="#F9A825"/>
<rect opacity="0.2" x="347.021" y="200.007" width="19.0436" height="81.9702" rx="5" fill="#F9A825"/>
<rect opacity="0.2" x="404.979" y="228.986" width="19.0436" height="52.9908" rx="5" fill="#F9A825"/>
<rect opacity="0.2" x="462.938" y="179.307" width="19.0436" height="102.67" rx="5" fill="#F9A825"/>
</svg>
