<svg width="25" height="25" viewBox="0 0 25 25" fill="none" xmlns="http://www.w3.org/2000/svg">
<path d="M21.5273 21.5278H3.47179C3.28761 21.5278 3.11098 21.601 2.98074 21.7312C2.85051 21.8615 2.77734 22.0381 2.77734 22.2223C2.77734 22.4065 2.85051 22.5831 2.98074 22.7133C3.11098 22.8436 3.28761 22.9167 3.47179 22.9167H21.5273C21.7115 22.9167 21.8882 22.8436 22.0184 22.7133C22.1486 22.5831 22.2218 22.4065 22.2218 22.2223C22.2218 22.0381 22.1486 21.8615 22.0184 21.7312C21.8882 21.601 21.7115 21.5278 21.5273 21.5278Z" fill="white"/>
<path d="M12.5003 20.4723L19.8684 13.1042C19.9822 12.9714 20.0416 12.8005 20.0349 12.6257C20.0281 12.4509 19.9557 12.2851 19.832 12.1615C19.7083 12.0378 19.5425 11.9653 19.3677 11.9586C19.193 11.9518 19.0221 12.0113 18.8892 12.1251L13.1948 17.8126V3.47228C13.1948 3.2881 13.1216 3.11146 12.9914 2.98123C12.8611 2.851 12.6845 2.77783 12.5003 2.77783C12.3162 2.77783 12.1395 2.851 12.0093 2.98123C11.8791 3.11146 11.8059 3.2881 11.8059 3.47228V17.8126L6.11839 12.1251C6.05614 12.0524 5.97953 11.9933 5.89337 11.9516C5.80721 11.91 5.71337 11.8865 5.61773 11.8828C5.52209 11.8791 5.42672 11.8953 5.33761 11.9302C5.2485 11.9651 5.16756 12.018 5.09988 12.0857C5.03221 12.1534 4.97925 12.2343 4.94434 12.3234C4.90942 12.4126 4.89331 12.5079 4.897 12.6036C4.9007 12.6992 4.92412 12.793 4.9658 12.8792C5.00749 12.9654 5.06653 13.042 5.13922 13.1042L12.5003 20.4723Z" fill="white"/>
</svg>
