<svg width="119" height="97" viewBox="0 0 119 97" fill="none" xmlns="http://www.w3.org/2000/svg">
<g filter="url(#filter0_d)">
<path d="M101.288 3H17.2881C11.213 3 6.28809 7.92487 6.28809 14V77C6.28809 83.0751 11.213 88 17.2881 88H101.288C107.363 88 112.288 83.0751 112.288 77V14C112.288 7.92487 107.363 3 101.288 3Z" fill="white"/>
</g>
<path d="M68.011 61.6782C79.7962 61.6782 89.3501 52.1244 89.3501 40.3391C89.3501 28.5538 79.7962 19 68.011 19C56.2257 19 46.6719 28.5538 46.6719 40.3391C46.6719 52.1244 56.2257 61.6782 68.011 61.6782Z" fill="#F9A825"/>
<path d="M28 35.2185V69.7321C28 71.0579 29.0748 72.1327 30.4006 72.1327H75.8601" stroke="#002058" stroke-width="2" stroke-linecap="round"/>
<path d="M45.7193 46.1738C46.811 46.1738 47.6961 47.0589 47.6961 48.1507V64.536C47.6961 65.6278 46.811 66.5128 45.7193 66.5128C44.6275 66.5128 43.7424 65.6278 43.7424 64.536V48.1507C43.7424 47.0589 44.6275 46.1738 45.7193 46.1738ZM55.6267 51.5086C56.7185 51.5086 57.6036 52.3937 57.6036 53.4855V64.536C57.6036 65.6278 56.7185 66.5129 55.6267 66.5129C54.5349 66.5129 53.6498 65.6278 53.6498 64.536V53.4855C53.6498 52.3937 54.5349 51.5086 55.6267 51.5086ZM35.8118 56.8434C36.9036 56.8434 37.7887 57.7285 37.7887 58.8203V64.536C37.7887 65.6278 36.9036 66.5129 35.8118 66.5129C34.72 66.5129 33.835 65.6278 33.835 64.536V58.8203C33.835 57.7285 34.72 56.8434 35.8118 56.8434ZM65.5341 38.1716C66.6259 38.1716 67.511 39.0567 67.511 40.1485V64.5359C67.511 65.6277 66.6259 66.5127 65.5341 66.5127C64.4423 66.5127 63.5573 65.6277 63.5573 64.5359V40.1485C63.5573 39.0567 64.4423 38.1716 65.5341 38.1716Z" fill="#002058" stroke="#002058"/>
<defs>
<filter id="filter0_d" x="0.288086" y="0" width="118" height="97" filterUnits="userSpaceOnUse" color-interpolation-filters="sRGB">
<feFlood flood-opacity="0" result="BackgroundImageFix"/>
<feColorMatrix in="SourceAlpha" type="matrix" values="0 0 0 0 0 0 0 0 0 0 0 0 0 0 0 0 0 0 127 0" result="hardAlpha"/>
<feOffset dy="3"/>
<feGaussianBlur stdDeviation="3"/>
<feColorMatrix type="matrix" values="0 0 0 0 0 0 0 0 0 0 0 0 0 0 0 0 0 0 0.161 0"/>
<feBlend mode="normal" in2="BackgroundImageFix" result="effect1_dropShadow"/>
<feBlend mode="normal" in="SourceGraphic" in2="effect1_dropShadow" result="shape"/>
</filter>
</defs>
</svg>
