<svg width="66" height="66" viewBox="0 0 66 66" fill="none" xmlns="http://www.w3.org/2000/svg">
<circle opacity="0.1" cx="33" cy="33" r="33" fill="white"/>
<g opacity="0.6">
<path d="M42.2812 44.4639C41.069 46.2421 39.8152 48.0093 37.8355 48.0463C35.8871 48.0834 35.2625 46.8887 33.0393 46.8887C30.8137 46.8887 30.1175 48.0093 28.278 48.0834C26.3668 48.1551 24.9136 46.1629 23.6914 44.3927C21.1946 40.7735 19.2889 34.1592 21.8518 29.6955C23.121 27.4787 25.3952 26.0762 27.8596 26.0391C29.7365 26.0045 31.5095 27.3084 32.6559 27.3084C33.8041 27.3084 35.9561 25.7429 38.2186 25.9725C39.1656 26.0118 41.8236 26.3553 43.5306 28.8609C43.3957 28.9498 40.358 30.7226 40.395 34.416C40.4322 38.8279 44.2491 40.2944 44.2934 40.3144C44.2589 40.4181 43.6832 42.408 42.2812 44.4639ZM33.9691 21.126C35.017 19.8943 36.7874 18.9782 38.2485 18.9166C38.4351 20.6275 37.749 22.3407 36.7356 23.5752C35.7202 24.8075 34.058 25.7674 32.4267 25.6392C32.205 23.9654 33.0272 22.2198 33.9691 21.126Z" fill="white"/>
</g>
</svg>
