<svg width="118" height="97" viewBox="0 0 118 97" fill="none" xmlns="http://www.w3.org/2000/svg">
<g filter="url(#filter0_d)">
<path d="M101 3H17C10.9249 3 6 7.92487 6 14V77C6 83.0751 10.9249 88 17 88H101C107.075 88 112 83.0751 112 77V14C112 7.92487 107.075 3 101 3Z" fill="white"/>
</g>
<path fill-rule="evenodd" clip-rule="evenodd" d="M73.038 56.2787C71.8767 49.363 65.712 44.0703 58.2604 44.0703C50.8059 44.0703 44.6393 49.3672 43.4814 56.2869C52.7764 56.1778 65.3441 56.175 73.038 56.2787Z" fill="#F9A825" stroke="#363F41" stroke-width="2"/>
<path d="M29 65.3499H89.4669" stroke="#363F41" stroke-width="2" stroke-linecap="round"/>
<path fill-rule="evenodd" clip-rule="evenodd" d="M58.9013 25C60.5526 25 61.8914 26.3387 61.8914 27.9901V33.173C61.8914 34.8244 60.5526 36.1631 58.9013 36.1631C57.2499 36.1631 55.9111 34.8244 55.9111 33.173V27.9901C55.9111 26.3387 57.2499 25 58.9013 25Z" fill="#363F41"/>
<path fill-rule="evenodd" clip-rule="evenodd" d="M84.1417 35.3458C85.3094 36.5135 85.3094 38.4067 84.1417 39.5744L80.4768 43.2393C79.3091 44.407 77.4159 44.407 76.2482 43.2393C75.0805 42.0716 75.0805 40.1783 76.2482 39.0106L79.913 35.3458C81.0807 34.1781 82.974 34.1781 84.1417 35.3458Z" fill="#363F41"/>
<path fill-rule="evenodd" clip-rule="evenodd" d="M34.3868 35.3456C35.5545 34.1779 37.4477 34.1779 38.6155 35.3456L42.2803 39.0105C43.448 40.1782 43.448 42.0714 42.2803 43.2391C41.1126 44.4069 39.2194 44.4069 38.0516 43.2391L34.3868 39.5743C33.2191 38.4066 33.2191 36.5133 34.3868 35.3456Z" fill="#363F41"/>
<defs>
<filter id="filter0_d" x="0" y="0" width="118" height="97" filterUnits="userSpaceOnUse" color-interpolation-filters="sRGB">
<feFlood flood-opacity="0" result="BackgroundImageFix"/>
<feColorMatrix in="SourceAlpha" type="matrix" values="0 0 0 0 0 0 0 0 0 0 0 0 0 0 0 0 0 0 127 0" result="hardAlpha"/>
<feOffset dy="3"/>
<feGaussianBlur stdDeviation="3"/>
<feColorMatrix type="matrix" values="0 0 0 0 0 0 0 0 0 0 0 0 0 0 0 0 0 0 0.161 0"/>
<feBlend mode="normal" in2="BackgroundImageFix" result="effect1_dropShadow"/>
<feBlend mode="normal" in="SourceGraphic" in2="effect1_dropShadow" result="shape"/>
</filter>
</defs>
</svg>
