<svg width="66" height="66" viewBox="0 0 66 66" fill="none" xmlns="http://www.w3.org/2000/svg">
<circle opacity="0.1" cx="33" cy="33" r="33" fill="white"/>
<g opacity="0.6">
<path d="M38.8592 36.4137C38.9787 35.4558 39.0619 34.4874 39.0619 33.4971C39.0619 32.5069 38.9787 31.5385 38.8592 30.5805H43.7825C44.0246 31.5139 44.166 32.4879 44.166 33.4971C44.166 34.5064 44.0246 35.4804 43.7825 36.4137H38.8592ZM36.2808 44.5235C37.1558 42.9004 37.8208 41.1533 38.2919 39.3304H42.5925C41.1939 41.7425 38.9598 43.6033 36.2808 44.5235ZM35.9104 36.4137H29.0869C28.9483 35.4585 28.8535 34.4904 28.8535 33.4971C28.8535 32.504 28.9483 31.5358 29.0869 30.5805H35.9104C36.0489 31.5358 36.1452 32.504 36.1452 33.4971C36.1452 34.4904 36.0489 35.4585 35.9104 36.4137ZM32.4964 45.1112C31.2831 43.3612 30.3352 41.4174 29.7125 39.3304H35.2848C34.6606 41.4174 33.7127 43.3612 32.4964 45.1112ZM26.7039 27.6638H22.4033C23.8004 25.2488 26.0345 23.385 28.715 22.4678C27.84 24.0909 27.175 25.838 26.7039 27.6638ZM22.4033 39.3304H26.7039C27.175 41.1548 27.84 42.9035 28.715 44.5265C26.0345 43.6093 23.8004 41.7456 22.4033 39.3304ZM21.2133 36.4137C20.9727 35.4804 20.8327 34.5064 20.8327 33.4971C20.8327 32.4879 20.9727 31.5139 21.2133 30.5805H26.1381C26.0185 31.5385 25.9368 32.5069 25.9368 33.4971C25.9368 34.4874 26.0185 35.4558 26.1381 36.4137H21.2133ZM32.4964 21.883C33.7127 23.633 34.6606 25.5769 35.2848 27.6638H29.7125C30.3352 25.5769 31.2831 23.633 32.4964 21.883ZM42.5925 27.6638H38.2919C37.8208 25.8409 37.1558 24.0938 36.2808 22.4707C38.9598 23.3909 41.1939 25.2517 42.5925 27.6638ZM32.4906 18.9138C24.4318 18.9138 17.916 25.4428 17.916 33.4971C17.916 41.5516 24.4318 48.0804 32.4906 48.0804C40.5508 48.0804 47.0827 41.5516 47.0827 33.4971C47.0827 25.4428 40.5508 18.9138 32.4906 18.9138Z" fill="white"/>
</g>
</svg>
